<svg version="1.1" xmlns="http://www.w3.org/2000/svg" xmlns:xlink="http://www.w3.org/1999/xlink" width="641.61181640625" height="416"><defs/><g><g transform="translate(-94,-142) scale(1,1)"><rect fill="#C0C0C0" stroke="none" x="111" y="159" width="66.80810546875" height="44" opacity="0.2"/></g><g transform="translate(-94,-142) scale(1,1)"><rect fill="#ffffff" stroke="none" x="104" y="152" width="66.80810546875" height="44"/></g><g transform="translate(-94,-142) scale(1,1)"><path fill="none" stroke="#000000" d="M 104 152 L 170.80810546875 152 L 170.80810546875 196 L 104 196 L 104 152 Z Z" stroke-miterlimit="10"/></g><g transform="translate(-94,-142) scale(1,1)"><g><path fill="none" stroke="none"/><text fill="#000000" stroke="none" font-family="Arial" font-size="13px" font-style="normal" font-weight="bold" text-decoration="none" x="109.9599609375" y="171.5">Grammar</text></g></g><g transform="translate(-94,-142) scale(1,1)"><rect fill="#C0C0C0" stroke="none" x="439" y="159" width="50.919921875" height="44" opacity="0.2"/></g><g transform="translate(-94,-142) scale(1,1)"><rect fill="#ffffff" stroke="none" x="432" y="152" width="50.919921875" height="44"/></g><g transform="translate(-94,-142) scale(1,1)"><path fill="none" stroke="#000000" d="M 432 152 L 482.919921875 152 L 482.919921875 196 L 432 196 L 432 152 Z Z" stroke-miterlimit="10"/></g><g transform="translate(-94,-142) scale(1,1)"><g><path fill="none" stroke="none"/><text fill="#000000" stroke="none" font-family="Arial" font-size="13px" font-style="italic" font-weight="bold" text-decoration="none" x="445.548583984375" y="171.5">Rule</text></g></g><g transform="translate(-94,-142) scale(1,1)"><rect fill="#C0C0C0" stroke="none" x="519" y="263" width="63.90087890625" height="44" opacity="0.2"/></g><g transform="translate(-94,-142) scale(1,1)"><rect fill="#ffffff" stroke="none" x="512" y="256" width="63.90087890625" height="44"/></g><g transform="translate(-94,-142) scale(1,1)"><path fill="none" stroke="#000000" d="M 512 256 L 575.90087890625 256 L 575.90087890625 300 L 512 300 L 512 256 Z Z" stroke-miterlimit="10"/></g><g transform="translate(-94,-142) scale(1,1)"><g><path fill="none" stroke="none"/><text fill="#000000" stroke="none" font-family="Arial" font-size="13px" font-style="italic" font-weight="bold" text-decoration="none" x="519.75634765625" y="275.5">Operator</text></g></g><g transform="translate(-94,-142) scale(1,1)"><rect fill="#C0C0C0" stroke="none" x="311" y="263" width="62.45361328125" height="44" opacity="0.2"/></g><g transform="translate(-94,-142) scale(1,1)"><rect fill="#ffffff" stroke="none" x="304" y="256" width="62.45361328125" height="44"/></g><g transform="translate(-94,-142) scale(1,1)"><path fill="none" stroke="#000000" d="M 304 256 L 366.45361328125 256 L 366.45361328125 300 L 304 300 L 304 256 Z Z" stroke-miterlimit="10"/></g><g transform="translate(-94,-142) scale(1,1)"><g><path fill="none" stroke="none"/><text fill="#000000" stroke="none" font-family="Arial" font-size="13px" font-style="italic" font-weight="bold" text-decoration="none" x="312.1181640625" y="275.5">Operand</text></g></g><g transform="translate(-94,-142) scale(1,1)"><rect fill="#C0C0C0" stroke="none" x="279" y="351" width="55.95361328125" height="44" opacity="0.2"/></g><g transform="translate(-94,-142) scale(1,1)"><rect fill="#ffffff" stroke="none" x="272" y="344" width="55.95361328125" height="44"/></g><g transform="translate(-94,-142) scale(1,1)"><path fill="none" stroke="#000000" d="M 272 344 L 327.95361328125 344 L 327.95361328125 388 L 272 388 L 272 344 Z Z" stroke-miterlimit="10"/></g><g transform="translate(-94,-142) scale(1,1)"><g><path fill="none" stroke="none"/><text fill="#000000" stroke="none" font-family="Arial" font-size="13px" font-style="italic" font-weight="bold" text-decoration="none" x="280.841796875" y="363.5">Symbol</text></g></g><g transform="translate(-94,-142) scale(1,1)"><rect fill="#C0C0C0" stroke="none" x="351" y="351" width="50.919921875" height="44" opacity="0.2"/></g><g transform="translate(-94,-142) scale(1,1)"><rect fill="#ffffff" stroke="none" x="344" y="344" width="50.919921875" height="44"/></g><g transform="translate(-94,-142) scale(1,1)"><path fill="none" stroke="#000000" d="M 344 344 L 394.919921875 344 L 394.919921875 388 L 344 388 L 344 344 Z Z" stroke-miterlimit="10"/></g><g transform="translate(-94,-142) scale(1,1)"><g><path fill="none" stroke="none"/><text fill="#000000" stroke="none" font-family="Arial" font-size="13px" font-style="normal" font-weight="bold" text-decoration="none" x="351.0390625" y="363.5">Empty</text></g></g><g transform="translate(-94,-142) scale(1,1)"><rect fill="#C0C0C0" stroke="none" x="319" y="439" width="62.21875" height="44" opacity="0.2"/></g><g transform="translate(-94,-142) scale(1,1)"><rect fill="#ffffff" stroke="none" x="312" y="432" width="62.21875" height="44"/></g><g transform="translate(-94,-142) scale(1,1)"><path fill="none" stroke="#000000" d="M 312 432 L 374.21875 432 L 374.21875 476 L 312 476 L 312 432 Z Z" stroke-miterlimit="10"/></g><g transform="translate(-94,-142) scale(1,1)"><g><path fill="none" stroke="none"/><text fill="#000000" stroke="none" font-family="Arial" font-size="13px" font-style="normal" font-weight="bold" text-decoration="none" x="318.547119140625" y="451.5">Terminal</text></g></g><g transform="translate(-94,-142) scale(1,1)"><rect fill="#C0C0C0" stroke="none" x="215" y="439" width="87.48876953125" height="44" opacity="0.2"/></g><g transform="translate(-94,-142) scale(1,1)"><rect fill="#ffffff" stroke="none" x="208" y="432" width="87.48876953125" height="44"/></g><g transform="translate(-94,-142) scale(1,1)"><path fill="none" stroke="#000000" d="M 208 432 L 295.48876953125 432 L 295.48876953125 476 L 208 476 L 208 432 Z Z" stroke-miterlimit="10"/></g><g transform="translate(-94,-142) scale(1,1)"><g><path fill="none" stroke="none"/><text fill="#000000" stroke="none" font-family="Arial" font-size="13px" font-style="normal" font-weight="bold" text-decoration="none" x="215.258056640625" y="451.5">NonTerminal</text></g></g><g transform="translate(-94,-142) scale(1,1)"><rect fill="#C0C0C0" stroke="none" x="271" y="159" width="77.60546875" height="44" opacity="0.2"/></g><g transform="translate(-94,-142) scale(1,1)"><rect fill="#ffffff" stroke="none" x="264" y="152" width="77.60546875" height="44"/></g><g transform="translate(-94,-142) scale(1,1)"><path fill="none" stroke="#000000" d="M 264 152 L 341.60546875 152 L 341.60546875 196 L 264 196 L 264 152 Z Z" stroke-miterlimit="10"/></g><g transform="translate(-94,-142) scale(1,1)"><g><path fill="none" stroke="none"/><text fill="#000000" stroke="none" font-family="Arial" font-size="13px" font-style="normal" font-weight="bold" text-decoration="none" x="271.727783203125" y="171.5">Production</text></g></g><g transform="translate(-94,-142) scale(1,1)"><path fill="none" stroke="#000000" d="M 251 432 L 251 418 L 304 418 L 304 388" stroke-miterlimit="10"/></g><g transform="translate(-94,-142) scale(1,1)"><path fill="#FFFFFF" stroke="none" d="M 312.419035512032 408.3253497152483 L 304 388 L 295.580964487968 408.3253497152483"/></g><g transform="translate(-94,-142) scale(1,1)"><path fill="none" stroke="#000000" d="M 312.419035512032 408.3253497152483 L 304 388 L 295.580964487968 408.3253497152483 L 312.419035512032 408.3253497152483" stroke-miterlimit="10"/></g><g transform="translate(-94,-142) scale(1,1)"><path fill="none" stroke="#000000" d="M 343 432 L 343 418 L 304 418 L 304 388" stroke-miterlimit="10"/></g><g transform="translate(-94,-142) scale(1,1)"><path fill="#FFFFFF" stroke="none" d="M 312.419035512032 408.3253497152483 L 304 388 L 295.580964487968 408.3253497152483"/></g><g transform="translate(-94,-142) scale(1,1)"><path fill="none" stroke="#000000" d="M 312.419035512032 408.3253497152483 L 304 388 L 295.580964487968 408.3253497152483 L 312.419035512032 408.3253497152483" stroke-miterlimit="10"/></g><g transform="translate(-94,-142) scale(1,1)"><path fill="none" stroke="#000000" d="M 304 344 L 304 328 L 336 328 L 336 300" stroke-miterlimit="10"/></g><g transform="translate(-94,-142) scale(1,1)"><path fill="#FFFFFF" stroke="none" d="M 344.419035512032 320.3253497152483 L 336 300 L 327.580964487968 320.3253497152483"/></g><g transform="translate(-94,-142) scale(1,1)"><path fill="none" stroke="#000000" d="M 344.419035512032 320.3253497152483 L 336 300 L 327.580964487968 320.3253497152483 L 344.419035512032 320.3253497152483" stroke-miterlimit="10"/></g><g transform="translate(-94,-142) scale(1,1)"><path fill="none" stroke="#000000" d="M 369 344 L 369 328 L 336 328 L 336 300" stroke-miterlimit="10"/></g><g transform="translate(-94,-142) scale(1,1)"><path fill="#FFFFFF" stroke="none" d="M 344.419035512032 320.3253497152483 L 336 300 L 327.580964487968 320.3253497152483"/></g><g transform="translate(-94,-142) scale(1,1)"><path fill="none" stroke="#000000" d="M 344.419035512032 320.3253497152483 L 336 300 L 327.580964487968 320.3253497152483 L 344.419035512032 320.3253497152483" stroke-miterlimit="10"/></g><g transform="translate(-94,-142) scale(1,1)"><path fill="none" stroke="#000000" d="M 351 256 L 351 238 L 457 238 L 457 196" stroke-miterlimit="10"/></g><g transform="translate(-94,-142) scale(1,1)"><path fill="#FFFFFF" stroke="none" d="M 465.419035512032 216.3253497152483 L 457 196 L 448.580964487968 216.3253497152483"/></g><g transform="translate(-94,-142) scale(1,1)"><path fill="none" stroke="#000000" d="M 465.419035512032 216.3253497152483 L 457 196 L 448.580964487968 216.3253497152483 L 465.419035512032 216.3253497152483" stroke-miterlimit="10"/></g><g transform="translate(-94,-142) scale(1,1)"><path fill="none" stroke="#000000" d="M 527 256 L 527 238 L 457 238 L 457 196" stroke-miterlimit="10"/></g><g transform="translate(-94,-142) scale(1,1)"><path fill="#FFFFFF" stroke="none" d="M 465.419035512032 216.3253497152483 L 457 196 L 448.580964487968 216.3253497152483"/></g><g transform="translate(-94,-142) scale(1,1)"><path fill="none" stroke="#000000" d="M 465.419035512032 216.3253497152483 L 457 196 L 448.580964487968 216.3253497152483 L 465.419035512032 216.3253497152483" stroke-miterlimit="10"/></g><g transform="translate(-94,-142) scale(1,1)"><path fill="none" stroke="#000000" d="M 136 196 L 136 454 L 208 454" stroke-miterlimit="10"/></g><g transform="translate(-94,-142) scale(1,1)"><path fill="none" stroke="#000000" d="M 197.83732514237585 458.209517756016 L 208 454 L 197.83732514237585 449.790482243984" stroke-miterlimit="10"/></g><g transform="translate(-94,-142) scale(1,1)"><g><path fill="none" stroke="none"/><text fill="#000000" stroke="none" font-family="Arial" font-size="13px" font-style="normal" font-weight="normal" text-decoration="none" x="119.5" y="223.5">1</text></g></g><g transform="translate(-94,-142) scale(1,1)"><g><path fill="none" stroke="none"/><text fill="#000000" stroke="none" font-family="Arial" font-size="13px" font-style="normal" font-weight="normal" text-decoration="none" x="142.680908203125" y="476.5">#startSym</text></g></g><g transform="translate(-94,-142) scale(1,1)"><g><path fill="none" stroke="none"/><text fill="#000000" stroke="none" font-family="Arial" font-size="13px" font-style="normal" font-weight="normal" text-decoration="none" x="191.5" y="443.5">1</text></g></g><g transform="translate(-94,-142) scale(1,1)"><path fill="none" stroke="#000000" d="M 263 174 L 172 174" stroke-miterlimit="10"/></g><g transform="translate(-94,-142) scale(1,1)"><path fill="#000000" stroke="none" d="M 182.16267485762415 169.790482243984 L 172 174 L 182.16267485762415 178.209517756016 L 194 174"/></g><g transform="translate(-94,-142) scale(1,1)"><path fill="none" stroke="#000000" d="M 182.16267485762415 169.790482243984 L 172 174 L 182.16267485762415 178.209517756016 L 194 174 L 182.16267485762415 169.790482243984" stroke-miterlimit="10"/></g><g transform="translate(-94,-142) scale(1,1)"><g><path fill="none" stroke="none"/><text fill="#000000" stroke="none" font-family="Arial" font-size="13px" font-style="normal" font-weight="normal" text-decoration="none" x="216.5" y="194.5">+prods</text></g></g><g transform="translate(-94,-142) scale(1,1)"><g><path fill="none" stroke="none"/><text fill="#000000" stroke="none" font-family="Arial" font-size="13px" font-style="normal" font-weight="normal" text-decoration="none" x="239.5" y="166.5">1..*</text></g></g><g transform="translate(-94,-142) scale(1,1)"><g><path fill="none" stroke="none"/><text fill="#000000" stroke="none" font-family="Arial" font-size="13px" font-style="normal" font-weight="normal" text-decoration="none" x="175.5" y="167.5">1</text></g></g><g transform="translate(-94,-142) scale(1,1)"><path fill="none" stroke="#000000" d="M 343 174 L 431 174" stroke-miterlimit="10"/></g><g transform="translate(-94,-142) scale(1,1)"><path fill="none" stroke="#000000" d="M 420.83732514237585 178.209517756016 L 431 174 L 420.83732514237585 169.790482243984" stroke-miterlimit="10"/></g><g transform="translate(-94,-142) scale(1,1)"><g><path fill="none" stroke="none"/><text fill="#000000" stroke="none" font-family="Arial" font-size="13px" font-style="normal" font-weight="normal" text-decoration="none" x="392.13134765625" y="165.5">-rule</text></g></g><g transform="translate(-94,-142) scale(1,1)"><g><path fill="none" stroke="none"/><text fill="#000000" stroke="none" font-family="Arial" font-size="13px" font-style="normal" font-weight="normal" text-decoration="none" x="405.5" y="192.5">1</text></g></g><g transform="translate(-94,-142) scale(1,1)"><rect fill="#C0C0C0" stroke="none" x="431" y="351" width="50.919921875" height="44" opacity="0.2"/></g><g transform="translate(-94,-142) scale(1,1)"><rect fill="#ffffff" stroke="none" x="424" y="344" width="50.919921875" height="44"/></g><g transform="translate(-94,-142) scale(1,1)"><path fill="none" stroke="#000000" d="M 424 344 L 474.919921875 344 L 474.919921875 388 L 424 388 L 424 344 Z Z" stroke-miterlimit="10"/></g><g transform="translate(-94,-142) scale(1,1)"><g><path fill="none" stroke="none"/><text fill="#000000" stroke="none" font-family="Arial" font-size="13px" font-style="italic" font-weight="bold" text-decoration="none" x="432.851318359375" y="363.5">Unary</text></g></g><g transform="translate(-94,-142) scale(1,1)"><rect fill="#C0C0C0" stroke="none" x="527" y="351" width="50.919921875" height="44" opacity="0.2"/></g><g transform="translate(-94,-142) scale(1,1)"><rect fill="#ffffff" stroke="none" x="520" y="344" width="50.919921875" height="44"/></g><g transform="translate(-94,-142) scale(1,1)"><path fill="none" stroke="#000000" d="M 520 344 L 570.919921875 344 L 570.919921875 388 L 520 388 L 520 344 Z Z" stroke-miterlimit="10"/></g><g transform="translate(-94,-142) scale(1,1)"><g><path fill="none" stroke="none"/><text fill="#000000" stroke="none" font-family="Arial" font-size="13px" font-style="italic" font-weight="bold" text-decoration="none" x="527.76904296875" y="363.5">Binary</text></g></g><g transform="translate(-94,-142) scale(1,1)"><rect fill="#C0C0C0" stroke="none" x="623" y="351" width="50.919921875" height="44" opacity="0.2"/></g><g transform="translate(-94,-142) scale(1,1)"><rect fill="#ffffff" stroke="none" x="616" y="344" width="50.919921875" height="44"/></g><g transform="translate(-94,-142) scale(1,1)"><path fill="none" stroke="#000000" d="M 616 344 L 666.919921875 344 L 666.919921875 388 L 616 388 L 616 344 Z Z" stroke-miterlimit="10"/></g><g transform="translate(-94,-142) scale(1,1)"><g><path fill="none" stroke="none"/><text fill="#000000" stroke="none" font-family="Arial" font-size="13px" font-style="italic" font-weight="bold" text-decoration="none" x="627.739501953125" y="363.5">NAry</text></g></g><g transform="translate(-94,-142) scale(1,1)"><rect fill="#C0C0C0" stroke="none" x="463" y="439" width="50.919921875" height="44" opacity="0.2"/></g><g transform="translate(-94,-142) scale(1,1)"><rect fill="#ffffff" stroke="none" x="456" y="432" width="50.919921875" height="44"/></g><g transform="translate(-94,-142) scale(1,1)"><path fill="none" stroke="#000000" d="M 456 432 L 506.919921875 432 L 506.919921875 476 L 456 476 L 456 432 Z Z" stroke-miterlimit="10"/></g><g transform="translate(-94,-142) scale(1,1)"><g><path fill="none" stroke="none"/><text fill="#000000" stroke="none" font-family="Arial" font-size="13px" font-style="normal" font-weight="bold" text-decoration="none" x="471.344970703125" y="451.5">Not</text></g></g><g transform="translate(-94,-142) scale(1,1)"><rect fill="#C0C0C0" stroke="none" x="399" y="511" width="50.919921875" height="44" opacity="0.2"/></g><g transform="translate(-94,-142) scale(1,1)"><rect fill="#ffffff" stroke="none" x="392" y="504" width="50.919921875" height="44"/></g><g transform="translate(-94,-142) scale(1,1)"><path fill="none" stroke="#000000" d="M 392 504 L 442.919921875 504 L 442.919921875 548 L 392 548 L 392 504 Z Z" stroke-miterlimit="10"/></g><g transform="translate(-94,-142) scale(1,1)"><g><path fill="none" stroke="none"/><text fill="#000000" stroke="none" font-family="Arial" font-size="13px" font-style="normal" font-weight="bold" text-decoration="none" x="404.8154296875" y="523.5">Plus</text></g></g><g transform="translate(-94,-142) scale(1,1)"><rect fill="#C0C0C0" stroke="none" x="527" y="439" width="53.05908203125" height="44" opacity="0.2"/></g><g transform="translate(-94,-142) scale(1,1)"><rect fill="#ffffff" stroke="none" x="520" y="432" width="53.05908203125" height="44"/></g><g transform="translate(-94,-142) scale(1,1)"><path fill="none" stroke="#000000" d="M 520 432 L 573.05908203125 432 L 573.05908203125 476 L 520 476 L 520 432 Z Z" stroke-miterlimit="10"/></g><g transform="translate(-94,-142) scale(1,1)"><g><path fill="none" stroke="none"/><text fill="#000000" stroke="none" font-family="Arial" font-size="13px" font-style="normal" font-weight="bold" text-decoration="none" x="525.9345703125" y="451.5">Concat</text></g></g><g transform="translate(-94,-142) scale(1,1)"><rect fill="#C0C0C0" stroke="none" x="463" y="511" width="50.919921875" height="44" opacity="0.2"/></g><g transform="translate(-94,-142) scale(1,1)"><rect fill="#ffffff" stroke="none" x="456" y="504" width="50.919921875" height="44"/></g><g transform="translate(-94,-142) scale(1,1)"><path fill="none" stroke="#000000" d="M 456 504 L 506.919921875 504 L 506.919921875 548 L 456 548 L 456 504 Z Z" stroke-miterlimit="10"/></g><g transform="translate(-94,-142) scale(1,1)"><g><path fill="none" stroke="none"/><text fill="#000000" stroke="none" font-family="Arial" font-size="13px" font-style="normal" font-weight="bold" text-decoration="none" x="469.5390625" y="523.5">Star</text></g></g><g transform="translate(-94,-142) scale(1,1)"><rect fill="#C0C0C0" stroke="none" x="591" y="439" width="50.919921875" height="44" opacity="0.2"/></g><g transform="translate(-94,-142) scale(1,1)"><rect fill="#ffffff" stroke="none" x="584" y="432" width="50.919921875" height="44"/></g><g transform="translate(-94,-142) scale(1,1)"><path fill="none" stroke="#000000" d="M 584 432 L 634.919921875 432 L 634.919921875 476 L 584 476 L 584 432 Z Z" stroke-miterlimit="10"/></g><g transform="translate(-94,-142) scale(1,1)"><g><path fill="none" stroke="none"/><text fill="#000000" stroke="none" font-family="Arial" font-size="13px" font-style="normal" font-weight="bold" text-decoration="none" x="591.39453125" y="451.5">Group</text></g></g><g transform="translate(-94,-142) scale(1,1)"><rect fill="#C0C0C0" stroke="none" x="399" y="439" width="50.919921875" height="44" opacity="0.2"/></g><g transform="translate(-94,-142) scale(1,1)"><rect fill="#ffffff" stroke="none" x="392" y="432" width="50.919921875" height="44"/></g><g transform="translate(-94,-142) scale(1,1)"><path fill="none" stroke="#000000" d="M 392 432 L 442.919921875 432 L 442.919921875 476 L 392 476 L 392 432 Z Z" stroke-miterlimit="10"/></g><g transform="translate(-94,-142) scale(1,1)"><g><path fill="none" stroke="none"/><text fill="#000000" stroke="none" font-family="Arial" font-size="13px" font-style="normal" font-weight="bold" text-decoration="none" x="406.983154296875" y="451.5">Opt</text></g></g><g transform="translate(-94,-142) scale(1,1)"><rect fill="#C0C0C0" stroke="none" x="655" y="439" width="77.61181640625" height="44" opacity="0.2"/></g><g transform="translate(-94,-142) scale(1,1)"><rect fill="#ffffff" stroke="none" x="648" y="432" width="77.61181640625" height="44"/></g><g transform="translate(-94,-142) scale(1,1)"><path fill="none" stroke="#000000" d="M 648 432 L 725.61181640625 432 L 725.61181640625 476 L 648 476 L 648 432 Z Z" stroke-miterlimit="10"/></g><g transform="translate(-94,-142) scale(1,1)"><g><path fill="none" stroke="none"/><text fill="#000000" stroke="none" font-family="Arial" font-size="13px" font-style="normal" font-weight="bold" text-decoration="none" x="655.73095703125" y="451.5">Alternation</text></g></g><g transform="translate(-94,-142) scale(1,1)"><path fill="none" stroke="#000000" d="M 417 432 L 417 418 L 449 418 L 449 388" stroke-miterlimit="10"/></g><g transform="translate(-94,-142) scale(1,1)"><path fill="#FFFFFF" stroke="none" d="M 457.419035512032 408.3253497152483 L 449 388 L 440.580964487968 408.3253497152483"/></g><g transform="translate(-94,-142) scale(1,1)"><path fill="none" stroke="#000000" d="M 457.419035512032 408.3253497152483 L 449 388 L 440.580964487968 408.3253497152483 L 457.419035512032 408.3253497152483" stroke-miterlimit="10"/></g><g transform="translate(-94,-142) scale(1,1)"><path fill="none" stroke="#000000" d="M 417 504 L 417 488 L 449 488 L 449 388" stroke-miterlimit="10"/></g><g transform="translate(-94,-142) scale(1,1)"><path fill="#FFFFFF" stroke="none" d="M 457.419035512032 408.3253497152483 L 449 388 L 440.580964487968 408.3253497152483"/></g><g transform="translate(-94,-142) scale(1,1)"><path fill="none" stroke="#000000" d="M 457.419035512032 408.3253497152483 L 449 388 L 440.580964487968 408.3253497152483 L 457.419035512032 408.3253497152483" stroke-miterlimit="10"/></g><g transform="translate(-94,-142) scale(1,1)"><path fill="none" stroke="#000000" d="M 480 504 L 480 488 L 449 488 L 449 388" stroke-miterlimit="10"/></g><g transform="translate(-94,-142) scale(1,1)"><path fill="#FFFFFF" stroke="none" d="M 457.419035512032 408.3253497152483 L 449 388 L 440.580964487968 408.3253497152483"/></g><g transform="translate(-94,-142) scale(1,1)"><path fill="none" stroke="#000000" d="M 457.419035512032 408.3253497152483 L 449 388 L 440.580964487968 408.3253497152483 L 457.419035512032 408.3253497152483" stroke-miterlimit="10"/></g><g transform="translate(-94,-142) scale(1,1)"><path fill="none" stroke="#000000" d="M 480 432 L 480 418 L 449 418 L 449 388" stroke-miterlimit="10"/></g><g transform="translate(-94,-142) scale(1,1)"><path fill="#FFFFFF" stroke="none" d="M 457.419035512032 408.3253497152483 L 449 388 L 440.580964487968 408.3253497152483"/></g><g transform="translate(-94,-142) scale(1,1)"><path fill="none" stroke="#000000" d="M 457.419035512032 408.3253497152483 L 449 388 L 440.580964487968 408.3253497152483 L 457.419035512032 408.3253497152483" stroke-miterlimit="10"/></g><g transform="translate(-94,-142) scale(1,1)"><path fill="none" stroke="#000000" d="M 546 431 L 545 389" stroke-miterlimit="10"/></g><g transform="translate(-94,-142) scale(1,1)"><path fill="#FFFFFF" stroke="none" d="M 553.9004499641751 409.11919457719955 L 545 389 L 537.0671496077304 409.5199874428292"/></g><g transform="translate(-94,-142) scale(1,1)"><path fill="none" stroke="#000000" d="M 553.9004499641751 409.11919457719955 L 545 389 L 537.0671496077304 409.5199874428292 L 553.9004499641751 409.11919457719955" stroke-miterlimit="10"/></g><g transform="translate(-94,-142) scale(1,1)"><path fill="none" stroke="#000000" d="M 609 432 L 609 418 L 641 418 L 641 388" stroke-miterlimit="10"/></g><g transform="translate(-94,-142) scale(1,1)"><path fill="#FFFFFF" stroke="none" d="M 649.419035512032 408.3253497152483 L 641 388 L 632.580964487968 408.3253497152483"/></g><g transform="translate(-94,-142) scale(1,1)"><path fill="none" stroke="#000000" d="M 649.419035512032 408.3253497152483 L 641 388 L 632.580964487968 408.3253497152483 L 649.419035512032 408.3253497152483" stroke-miterlimit="10"/></g><g transform="translate(-94,-142) scale(1,1)"><path fill="none" stroke="#000000" d="M 686 432 L 686 418 L 641 418 L 641 388" stroke-miterlimit="10"/></g><g transform="translate(-94,-142) scale(1,1)"><path fill="#FFFFFF" stroke="none" d="M 649.419035512032 408.3253497152483 L 641 388 L 632.580964487968 408.3253497152483"/></g><g transform="translate(-94,-142) scale(1,1)"><path fill="none" stroke="#000000" d="M 649.419035512032 408.3253497152483 L 641 388 L 632.580964487968 408.3253497152483 L 649.419035512032 408.3253497152483" stroke-miterlimit="10"/></g><g transform="translate(-94,-142) scale(1,1)"><path fill="none" stroke="#000000" d="M 449 344 L 449 330 L 544 330 L 544 300" stroke-miterlimit="10"/></g><g transform="translate(-94,-142) scale(1,1)"><path fill="#FFFFFF" stroke="none" d="M 552.419035512032 320.3253497152483 L 544 300 L 535.580964487968 320.3253497152483"/></g><g transform="translate(-94,-142) scale(1,1)"><path fill="none" stroke="#000000" d="M 552.419035512032 320.3253497152483 L 544 300 L 535.580964487968 320.3253497152483 L 552.419035512032 320.3253497152483" stroke-miterlimit="10"/></g><g transform="translate(-94,-142) scale(1,1)"><path fill="none" stroke="#000000" d="M 545 344 L 545 330 L 544 330 L 544 300" stroke-miterlimit="10"/></g><g transform="translate(-94,-142) scale(1,1)"><path fill="#FFFFFF" stroke="none" d="M 552.419035512032 320.3253497152483 L 544 300 L 535.580964487968 320.3253497152483"/></g><g transform="translate(-94,-142) scale(1,1)"><path fill="none" stroke="#000000" d="M 552.419035512032 320.3253497152483 L 544 300 L 535.580964487968 320.3253497152483 L 552.419035512032 320.3253497152483" stroke-miterlimit="10"/></g><g transform="translate(-94,-142) scale(1,1)"><path fill="none" stroke="#000000" d="M 641 344 L 641 330 L 544 330 L 544 300" stroke-miterlimit="10"/></g><g transform="translate(-94,-142) scale(1,1)"><path fill="#FFFFFF" stroke="none" d="M 552.419035512032 320.3253497152483 L 544 300 L 535.580964487968 320.3253497152483"/></g><g transform="translate(-94,-142) scale(1,1)"><path fill="none" stroke="#000000" d="M 552.419035512032 320.3253497152483 L 544 300 L 535.580964487968 320.3253497152483 L 552.419035512032 320.3253497152483" stroke-miterlimit="10"/></g><g transform="translate(-94,-142) scale(1,1)"><path fill="none" stroke="#000000" d="M 288 196 L 288 312 L 224 312 L 224 432" stroke-miterlimit="10"/></g><g transform="translate(-94,-142) scale(1,1)"><path fill="none" stroke="#000000" d="M 219.790482243984 421.83732514237585 L 224 432 L 228.209517756016 421.83732514237585" stroke-miterlimit="10"/></g><g transform="translate(-94,-142) scale(1,1)"><g><path fill="none" stroke="none"/><text fill="#000000" stroke="none" font-family="Arial" font-size="13px" font-style="normal" font-weight="normal" text-decoration="none" x="295.5" y="211.5">1</text></g></g><g transform="translate(-94,-142) scale(1,1)"><g><path fill="none" stroke="none"/><text fill="#000000" stroke="none" font-family="Arial" font-size="13px" font-style="normal" font-weight="normal" text-decoration="none" x="168.13134765625" y="419.5">-symbol</text></g></g><g transform="translate(-94,-142) scale(1,1)"><g><path fill="none" stroke="none"/><text fill="#000000" stroke="none" font-family="Arial" font-size="13px" font-style="normal" font-weight="normal" text-decoration="none" x="231.5" y="428.5">1</text></g></g></g></svg>