<svg version="1.1" xmlns="http://www.w3.org/2000/svg" xmlns:xlink="http://www.w3.org/1999/xlink" width="410.13720703125" height="725"><defs/><g><g transform="translate(-134,-46) scale(1,1)"><path fill="#C0C0C0" stroke="none" d="M 310 72.5 C 310 67.2532944 314.2532944 63 319.5 63 C 324.7467056 63 329 67.2532944 329 72.5 C 329 77.7467056 324.7467056 82 319.5 82 C 314.2532944 82 310 77.7467056 310 72.5 Z" opacity="0.2"/></g><g transform="translate(-134,-46) scale(1,1)"><path fill="#000000" stroke="none" d="M 303 65.5 C 303 60.2532944 307.2532944 56 312.5 56 C 317.7467056 56 322 60.2532944 322 65.5 C 322 70.7467056 317.7467056 75 312.5 75 C 307.2532944 75 303 70.7467056 303 65.5 Z"/></g><g transform="translate(-134,-46) scale(1,1)"><path fill="#C0C0C0" stroke="none" d="M 230 103 L 408.26171875 103 Q 418.26171875 103 418.26171875 113 L 418.26171875 133 Q 418.26171875 143 408.26171875 143 L 230 143 Q 220 143 220 133 L 220 113 Q 220 103 230 103 Z" opacity="0.2"/></g><g transform="translate(-134,-46) scale(1,1)"><path fill="#ffffff" stroke="none" d="M 223 96 L 401.26171875 96 Q 411.26171875 96 411.26171875 106 L 411.26171875 126 Q 411.26171875 136 401.26171875 136 L 223 136 Q 213 136 213 126 L 213 106 Q 213 96 223 96 Z"/></g><g transform="translate(-134,-46) scale(1,1)"><path fill="none" stroke="#000000" d="M 223 96 L 401.26171875 96 Q 411.26171875 96 411.26171875 106 L 411.26171875 126 Q 411.26171875 136 401.26171875 136 L 223 136 Q 213 136 213 126 L 213 106 Q 213 96 223 96 Z" stroke-miterlimit="10"/></g><g transform="translate(-134,-46) scale(1,1)"><g><path fill="none" stroke="none"/><text fill="#000000" stroke="none" font-family="Arial" font-size="13px" font-style="normal" font-weight="bold" text-decoration="none" x="223.273193359375" y="115.5">Collect ANTLR repo grammars</text></g></g><g transform="translate(-134,-46) scale(1,1)"><path fill="#C0C0C0" stroke="none" d="M 206 207 L 432.70703125 207 Q 442.70703125 207 442.70703125 217 L 442.70703125 237 Q 442.70703125 247 432.70703125 247 L 206 247 Q 196 247 196 237 L 196 217 Q 196 207 206 207 Z" opacity="0.2"/></g><g transform="translate(-134,-46) scale(1,1)"><path fill="#ffffff" stroke="none" d="M 199 200 L 425.70703125 200 Q 435.70703125 200 435.70703125 210 L 435.70703125 230 Q 435.70703125 240 425.70703125 240 L 199 240 Q 189 240 189 230 L 189 210 Q 189 200 199 200 Z"/></g><g transform="translate(-134,-46) scale(1,1)"><path fill="none" stroke="#000000" d="M 199 200 L 425.70703125 200 Q 435.70703125 200 435.70703125 210 L 435.70703125 230 Q 435.70703125 240 425.70703125 240 L 199 240 Q 189 240 189 230 L 189 210 Q 189 200 199 200 Z" stroke-miterlimit="10"/></g><g transform="translate(-134,-46) scale(1,1)"><g><path fill="none" stroke="none"/><text fill="#000000" stroke="none" font-family="Arial" font-size="13px" font-style="normal" font-weight="bold" text-decoration="none" x="201.812255859375" y="219.5">collect grammar metadata and metrics</text></g></g><g transform="translate(-134,-46) scale(1,1)"><path fill="#C0C0C0" stroke="none" d="M 308 176.5 L 319.5 167 L 330 176.5 L 319.5 185 L 308 176.5" opacity="0.2"/></g><g transform="translate(-134,-46) scale(1,1)"><path fill="#ffffff" stroke="none" d="M 301 169 L 312 160 L 323 169 L 312 178 L 301 169"/></g><g transform="translate(-134,-46) scale(1,1)"><path fill="none" stroke="#000000" d="M 301 169 L 312 160 L 323 169 L 312 178 L 301 169 L 301 169" stroke-miterlimit="10"/></g><g transform="translate(-134,-46) scale(1,1)"><path fill="#C0C0C0" stroke="none" d="M 308 280.5 L 319.5 271 L 330 280.5 L 319.5 289 L 308 280.5" opacity="0.2"/></g><g transform="translate(-134,-46) scale(1,1)"><path fill="#ffffff" stroke="none" d="M 301 273 L 312 264 L 323 273 L 312 282 L 301 273"/></g><g transform="translate(-134,-46) scale(1,1)"><path fill="none" stroke="#000000" d="M 301 273 L 312 264 L 323 273 L 312 282 L 301 273 L 301 273" stroke-miterlimit="10"/></g><g transform="translate(-134,-46) scale(1,1)"><path fill="#C0C0C0" stroke="none" d="M 208 311 L 431.75537109375 311 Q 441.75537109375 311 441.75537109375 321 L 441.75537109375 341 Q 441.75537109375 351 431.75537109375 351 L 208 351 Q 198 351 198 341 L 198 321 Q 198 311 208 311 Z" opacity="0.2"/></g><g transform="translate(-134,-46) scale(1,1)"><path fill="#ffffff" stroke="none" d="M 201 304 L 424.75537109375 304 Q 434.75537109375 304 434.75537109375 314 L 434.75537109375 334 Q 434.75537109375 344 424.75537109375 344 L 201 344 Q 191 344 191 334 L 191 314 Q 191 304 201 304 Z"/></g><g transform="translate(-134,-46) scale(1,1)"><path fill="none" stroke="#000000" d="M 201 304 L 424.75537109375 304 Q 434.75537109375 304 434.75537109375 314 L 434.75537109375 334 Q 434.75537109375 344 424.75537109375 344 L 201 344 Q 191 344 191 334 L 191 314 Q 191 304 201 304 Z" stroke-miterlimit="10"/></g><g transform="translate(-134,-46) scale(1,1)"><g><path fill="none" stroke="none"/><text fill="#000000" stroke="none" font-family="Arial" font-size="13px" font-style="normal" font-weight="bold" text-decoration="none" x="198.369140625" y="323.5">Measure MEAN and STDDEV of PROD</text></g></g><g transform="translate(-134,-46) scale(1,1)"><path fill="#C0C0C0" stroke="none" d="M 252 375 L 386.234375 375 Q 396.234375 375 396.234375 385 L 396.234375 405 Q 396.234375 415 386.234375 415 L 252 415 Q 242 415 242 405 L 242 385 Q 242 375 252 375 Z" opacity="0.2"/></g><g transform="translate(-134,-46) scale(1,1)"><path fill="#ffffff" stroke="none" d="M 245 368 L 379.234375 368 Q 389.234375 368 389.234375 378 L 389.234375 398 Q 389.234375 408 379.234375 408 L 245 408 Q 235 408 235 398 L 235 378 Q 235 368 245 368 Z"/></g><g transform="translate(-134,-46) scale(1,1)"><path fill="none" stroke="#000000" d="M 245 368 L 379.234375 368 Q 389.234375 368 389.234375 378 L 389.234375 398 Q 389.234375 408 379.234375 408 L 245 408 Q 235 408 235 398 L 235 378 Q 235 368 245 368 Z" stroke-miterlimit="10"/></g><g transform="translate(-134,-46) scale(1,1)"><g><path fill="none" stroke="none"/><text fill="#000000" stroke="none" font-family="Arial" font-size="13px" font-style="normal" font-weight="bold" text-decoration="none" x="243.49267578125" y="387.5">Mark grammars by Size</text></g></g><g transform="translate(-134,-46) scale(1,1)"><path fill="none" stroke="#000000" d="M 301 272 L 168 272 L 168 168 L 301 168" stroke-miterlimit="10"/></g><g transform="translate(-134,-46) scale(1,1)"><path fill="none" stroke="#000000" d="M 290.83732514237585 172.209517756016 L 301 168 L 290.83732514237585 163.790482243984" stroke-miterlimit="10"/></g><g transform="translate(-134,-46) scale(1,1)"><path fill="none" stroke="#000000" d="M 312 283 L 312 303" stroke-miterlimit="10"/></g><g transform="translate(-134,-46) scale(1,1)"><path fill="none" stroke="#000000" d="M 307.790482243984 292.83732514237585 L 312 303 L 316.209517756016 292.83732514237585" stroke-miterlimit="10"/></g><g transform="translate(-134,-46) scale(1,1)"><path fill="none" stroke="#000000" d="M 312 76 L 312 95" stroke-miterlimit="10"/></g><g transform="translate(-134,-46) scale(1,1)"><path fill="none" stroke="#000000" d="M 307.790482243984 84.83732514237585 L 312 95 L 316.209517756016 84.83732514237585" stroke-miterlimit="10"/></g><g transform="translate(-134,-46) scale(1,1)"><path fill="none" stroke="#000000" d="M 312 137 L 312 159" stroke-miterlimit="10"/></g><g transform="translate(-134,-46) scale(1,1)"><path fill="none" stroke="#000000" d="M 307.790482243984 148.83732514237585 L 312 159 L 316.209517756016 148.83732514237585" stroke-miterlimit="10"/></g><g transform="translate(-134,-46) scale(1,1)"><path fill="none" stroke="#000000" d="M 312 179 L 312 199" stroke-miterlimit="10"/></g><g transform="translate(-134,-46) scale(1,1)"><path fill="none" stroke="#000000" d="M 307.790482243984 188.83732514237585 L 312 199 L 316.209517756016 188.83732514237585" stroke-miterlimit="10"/></g><g transform="translate(-134,-46) scale(1,1)"><path fill="none" stroke="#000000" d="M 312 241 L 312 263" stroke-miterlimit="10"/></g><g transform="translate(-134,-46) scale(1,1)"><path fill="none" stroke="#000000" d="M 307.790482243984 252.83732514237585 L 312 263 L 316.209517756016 252.83732514237585" stroke-miterlimit="10"/></g><g transform="translate(-134,-46) scale(1,1)"><path fill="none" stroke="#000000" d="M 312 345 L 312 367" stroke-miterlimit="10"/></g><g transform="translate(-134,-46) scale(1,1)"><path fill="none" stroke="#000000" d="M 307.790482243984 356.83732514237585 L 312 367 L 316.209517756016 356.83732514237585" stroke-miterlimit="10"/></g><g transform="translate(-134,-46) scale(1,1)"><path fill="#C0C0C0" stroke="none" d="M 272 471 L 367.95166015625 471 Q 377.95166015625 471 377.95166015625 481 L 377.95166015625 501 Q 377.95166015625 511 367.95166015625 511 L 272 511 Q 262 511 262 501 L 262 481 Q 262 471 272 471 Z" opacity="0.2"/></g><g transform="translate(-134,-46) scale(1,1)"><path fill="#ffffff" stroke="none" d="M 265 464 L 360.95166015625 464 Q 370.95166015625 464 370.95166015625 474 L 370.95166015625 494 Q 370.95166015625 504 360.95166015625 504 L 265 504 Q 255 504 255 494 L 255 474 Q 255 464 265 464 Z"/></g><g transform="translate(-134,-46) scale(1,1)"><path fill="none" stroke="#000000" d="M 265 464 L 360.95166015625 464 Q 370.95166015625 464 370.95166015625 474 L 370.95166015625 494 Q 370.95166015625 504 360.95166015625 504 L 265 504 Q 255 504 255 494 L 255 474 Q 255 464 265 464 Z" stroke-miterlimit="10"/></g><g transform="translate(-134,-46) scale(1,1)"><g><path fill="none" stroke="none"/><text fill="#000000" stroke="none" font-family="Arial" font-size="13px" font-style="normal" font-weight="bold" text-decoration="none" x="262.410400390625" y="483.5">Select Grammars</text></g></g><g transform="translate(-134,-46) scale(1,1)"><path fill="#C0C0C0" stroke="none" d="M 245 527 L 393.67529296875 527 Q 403.67529296875 527 403.67529296875 537 L 403.67529296875 557 Q 403.67529296875 567 393.67529296875 567 L 245 567 Q 235 567 235 557 L 235 537 Q 235 527 245 527 Z" opacity="0.2"/></g><g transform="translate(-134,-46) scale(1,1)"><path fill="#ffffff" stroke="none" d="M 238 520 L 386.67529296875 520 Q 396.67529296875 520 396.67529296875 530 L 396.67529296875 550 Q 396.67529296875 560 386.67529296875 560 L 238 560 Q 228 560 228 550 L 228 530 Q 228 520 238 520 Z"/></g><g transform="translate(-134,-46) scale(1,1)"><path fill="none" stroke="#000000" d="M 238 520 L 386.67529296875 520 Q 396.67529296875 520 396.67529296875 530 L 396.67529296875 550 Q 396.67529296875 560 386.67529296875 560 L 238 560 Q 228 560 228 550 L 228 530 Q 228 520 238 520 Z" stroke-miterlimit="10"/></g><g transform="translate(-134,-46) scale(1,1)"><g><path fill="none" stroke="none"/><text fill="#000000" stroke="none" font-family="Arial" font-size="13px" font-style="normal" font-weight="bold" text-decoration="none" x="237.2099609375" y="539.5">Randomly Pair Grammars</text></g></g><g transform="translate(-134,-46) scale(1,1)"><path fill="#C0C0C0" stroke="none" d="M 185 583 L 454.287109375 583 Q 464.287109375 583 464.287109375 593 L 464.287109375 613 Q 464.287109375 623 454.287109375 623 L 185 623 Q 175 623 175 613 L 175 593 Q 175 583 185 583 Z" opacity="0.2"/></g><g transform="translate(-134,-46) scale(1,1)"><path fill="#ffffff" stroke="none" d="M 178 576 L 447.287109375 576 Q 457.287109375 576 457.287109375 586 L 457.287109375 606 Q 457.287109375 616 447.287109375 616 L 178 616 Q 168 616 168 606 L 168 586 Q 168 576 178 576 Z"/></g><g transform="translate(-134,-46) scale(1,1)"><path fill="none" stroke="#000000" d="M 178 576 L 447.287109375 576 Q 457.287109375 576 457.287109375 586 L 457.287109375 606 Q 457.287109375 616 447.287109375 616 L 178 616 Q 168 616 168 606 L 168 586 Q 168 576 178 576 Z" stroke-miterlimit="10"/></g><g transform="translate(-134,-46) scale(1,1)"><g><path fill="none" stroke="none"/><text fill="#000000" stroke="none" font-family="Arial" font-size="13px" font-style="normal" font-weight="bold" text-decoration="none" x="183.31640625" y="595.5">Randomly assign Similarity Threshold to Pair</text></g></g><g transform="translate(-134,-46) scale(1,1)"><path fill="#C0C0C0" stroke="none" d="M 308 448.5 L 319.5 439 L 330 448.5 L 319.5 457 L 308 448.5" opacity="0.2"/></g><g transform="translate(-134,-46) scale(1,1)"><path fill="#ffffff" stroke="none" d="M 301 441 L 312 432 L 323 441 L 312 450 L 301 441"/></g><g transform="translate(-134,-46) scale(1,1)"><path fill="none" stroke="#000000" d="M 301 441 L 312 432 L 323 441 L 312 450 L 301 441 L 301 441" stroke-miterlimit="10"/></g><g transform="translate(-134,-46) scale(1,1)"><path fill="none" stroke="#000000" d="M 312 409 L 312 431" stroke-miterlimit="10"/></g><g transform="translate(-134,-46) scale(1,1)"><path fill="none" stroke="#000000" d="M 307.790482243984 420.83732514237585 L 312 431 L 316.209517756016 420.83732514237585" stroke-miterlimit="10"/></g><g transform="translate(-134,-46) scale(1,1)"><path fill="none" stroke="#000000" d="M 312 451 L 312 463" stroke-miterlimit="10"/></g><g transform="translate(-134,-46) scale(1,1)"><path fill="none" stroke="#000000" d="M 307.790482243984 452.83732514237585 L 312 463 L 316.209517756016 452.83732514237585" stroke-miterlimit="10"/></g><g transform="translate(-134,-46) scale(1,1)"><path fill="none" stroke="#000000" d="M 312 505 L 312 519" stroke-miterlimit="10"/></g><g transform="translate(-134,-46) scale(1,1)"><path fill="none" stroke="#000000" d="M 307.790482243984 508.83732514237585 L 312 519 L 316.209517756016 508.83732514237585" stroke-miterlimit="10"/></g><g transform="translate(-134,-46) scale(1,1)"><path fill="none" stroke="#000000" d="M 312 561 L 312 575" stroke-miterlimit="10"/></g><g transform="translate(-134,-46) scale(1,1)"><path fill="none" stroke="#000000" d="M 307.790482243984 564.8373251423759 L 312 575 L 316.209517756016 564.8373251423759" stroke-miterlimit="10"/></g><g transform="translate(-134,-46) scale(1,1)"><path fill="#C0C0C0" stroke="none" d="M 308 656.5 L 319.5 647 L 330 656.5 L 319.5 665 L 308 656.5" opacity="0.2"/></g><g transform="translate(-134,-46) scale(1,1)"><path fill="#ffffff" stroke="none" d="M 301 649 L 312 640 L 323 649 L 312 658 L 301 649"/></g><g transform="translate(-134,-46) scale(1,1)"><path fill="none" stroke="#000000" d="M 301 649 L 312 640 L 323 649 L 312 658 L 301 649 L 301 649" stroke-miterlimit="10"/></g><g transform="translate(-134,-46) scale(1,1)"><path fill="none" stroke="#000000" d="M 301 648 L 144 648 L 144 440 L 301 440" stroke-miterlimit="10"/></g><g transform="translate(-134,-46) scale(1,1)"><path fill="none" stroke="#000000" d="M 290.83732514237585 444.209517756016 L 301 440 L 290.83732514237585 435.790482243984" stroke-miterlimit="10"/></g><g transform="translate(-134,-46) scale(1,1)"><path fill="none" stroke="#000000" d="M 312 617 L 312 639" stroke-miterlimit="10"/></g><g transform="translate(-134,-46) scale(1,1)"><path fill="none" stroke="#000000" d="M 307.790482243984 628.8373251423759 L 312 639 L 316.209517756016 628.8373251423759" stroke-miterlimit="10"/></g><g transform="translate(-134,-46) scale(1,1)"><g><path fill="none" stroke="none"/><text fill="#000000" stroke="none" font-family="Arial" font-size="13px" font-style="normal" font-weight="normal" text-decoration="none" x="333" y="442">For each Size</text><text fill="#000000" stroke="none" font-family="Arial" font-size="13px" font-style="normal" font-weight="normal" text-decoration="none" x="333" y="455">Category</text></g></g><g transform="translate(-134,-46) scale(1,1)"><path fill="#C0C0C0" stroke="none" d="M 256 679 L 382.21728515625 679 Q 392.21728515625 679 392.21728515625 689 L 392.21728515625 709 Q 392.21728515625 719 382.21728515625 719 L 256 719 Q 246 719 246 709 L 246 689 Q 246 679 256 679 Z" opacity="0.2"/></g><g transform="translate(-134,-46) scale(1,1)"><path fill="#ffffff" stroke="none" d="M 249 672 L 375.21728515625 672 Q 385.21728515625 672 385.21728515625 682 L 385.21728515625 702 Q 385.21728515625 712 375.21728515625 712 L 249 712 Q 239 712 239 702 L 239 682 Q 239 672 249 672 Z"/></g><g transform="translate(-134,-46) scale(1,1)"><path fill="none" stroke="#000000" d="M 249 672 L 375.21728515625 672 Q 385.21728515625 672 385.21728515625 682 L 385.21728515625 702 Q 385.21728515625 712 375.21728515625 712 L 249 712 Q 239 712 239 702 L 239 682 Q 239 672 249 672 Z" stroke-miterlimit="10"/></g><g transform="translate(-134,-46) scale(1,1)"><g><path fill="none" stroke="none"/><text fill="#000000" stroke="none" font-family="Arial" font-size="13px" font-style="normal" font-weight="bold" text-decoration="none" x="249.254150390625" y="691.5">Construct Control File</text></g></g><g transform="translate(-134,-46) scale(1,1)"><path fill="none" stroke="#000000" d="M 312 659 L 312 671" stroke-miterlimit="10"/></g><g transform="translate(-134,-46) scale(1,1)"><path fill="none" stroke="#000000" d="M 307.790482243984 660.8373251423759 L 312 671 L 316.209517756016 660.8373251423759" stroke-miterlimit="10"/></g><g transform="translate(-134,-46) scale(1,1)"><path fill="#C0C0C0" stroke="none" d="M 307 755.5 C 307 748.59644 312.59644 743 319.5 743 C 326.40356 743 332 748.59644 332 755.5 C 332 762.40356 326.40356 768 319.5 768 C 312.59644 768 307 762.40356 307 755.5 Z" opacity="0.2"/></g><g transform="translate(-134,-46) scale(1,1)"><path fill="none" stroke="#000000" d="M 300 748.5 C 300 741.59644 305.59644 736 312.5 736 C 319.40356 736 325 741.59644 325 748.5 C 325 755.40356 319.40356 761 312.5 761 C 305.59644 761 300 755.40356 300 748.5 Z" stroke-miterlimit="10"/></g><g transform="translate(-134,-46) scale(1,1)"><path fill="#000000" stroke="none" d="M 305 748.5 C 305 744.357864 308.357864 741 312.5 741 C 316.642136 741 320 744.357864 320 748.5 C 320 752.642136 316.642136 756 312.5 756 C 308.357864 756 305 752.642136 305 748.5 Z"/></g><g transform="translate(-134,-46) scale(1,1)"><path fill="none" stroke="#000000" d="M 312 713 L 312 735" stroke-miterlimit="10"/></g><g transform="translate(-134,-46) scale(1,1)"><path fill="none" stroke="#000000" d="M 307.790482243984 724.8373251423759 L 312 735 L 316.209517756016 724.8373251423759" stroke-miterlimit="10"/></g><g transform="translate(-134,-46) scale(1,1)"><g><path fill="none" stroke="none"/><text fill="#000000" stroke="none" font-family="Arial" font-size="13px" font-style="normal" font-weight="normal" text-decoration="none" x="333" y="170">For each ANTLR</text><text fill="#000000" stroke="none" font-family="Arial" font-size="13px" font-style="normal" font-weight="normal" text-decoration="none" x="333" y="183">Grammar</text></g></g><g transform="translate(-134,-46) scale(1,1)"><rect fill="#C0C0C0" stroke="none" x="431" y="679" width="110.13720703125" height="37" opacity="0.2"/></g><g transform="translate(-134,-46) scale(1,1)"><rect fill="#ffffff" stroke="none" x="424" y="672" width="110.13720703125" height="37"/></g><g transform="translate(-134,-46) scale(1,1)"><path fill="none" stroke="#000000" d="M 424 672 L 534.13720703125 672 L 534.13720703125 709 L 424 709 L 424 672 Z Z" stroke-miterlimit="10"/></g><g transform="translate(-134,-46) scale(1,1)"><rect fill="#ffffff" stroke="none" x="424" y="672" width="110.13720703125" height="37"/></g><g transform="translate(-134,-46) scale(1,1)"><path fill="none" stroke="#000000" d="M 424 672 L 534.13720703125 672 L 534.13720703125 709 L 424 709 L 424 672 Z Z" stroke-miterlimit="10"/></g><g transform="translate(-134,-46) scale(1,1)"><g><path fill="none" stroke="none"/><text fill="#000000" stroke="none" font-family="Arial" font-size="13px" font-style="normal" font-weight="normal" text-decoration="none" x="444.7373046875" y="689.5">«datastore»</text></g></g><g transform="translate(-134,-46) scale(1,1)"><g><path fill="none" stroke="none"/><text fill="#000000" stroke="none" font-family="Arial" font-size="13px" font-style="normal" font-weight="bold" text-decoration="none" x="447.641357421875" y="704.5">ControlFile</text></g></g><g transform="translate(-134,-46) scale(1,1)"><path fill="none" stroke="#000000" d="M 386 691 L 423 691" stroke-miterlimit="10"/></g><g transform="translate(-134,-46) scale(1,1)"><path fill="none" stroke="#000000" d="M 412.83732514237585 695.209517756016 L 423 691 L 412.83732514237585 686.790482243984" stroke-miterlimit="10"/></g></g></svg>