<svg version="1.1" xmlns="http://www.w3.org/2000/svg" xmlns:xlink="http://www.w3.org/1999/xlink" width="469.0380859375" height="829"><defs/><g><g transform="translate(-46,-22) scale(1,1)"><rect fill="#ffffff" stroke="none" x="392" y="72" width="110.13720703125" height="37"/></g><g transform="translate(-46,-22) scale(1,1)"><path fill="none" stroke="#000000" d="M 392 72 L 502.13720703125 72 L 502.13720703125 109 L 392 109 L 392 72 Z Z" stroke-miterlimit="10"/></g><g transform="translate(-46,-22) scale(1,1)"><rect fill="#ffffff" stroke="none" x="392" y="72" width="110.13720703125" height="37"/></g><g transform="translate(-46,-22) scale(1,1)"><path fill="none" stroke="#000000" d="M 392 72 L 502.13720703125 72 L 502.13720703125 109 L 392 109 L 392 72 Z Z" stroke-miterlimit="10"/></g><g transform="translate(-46,-22) scale(1,1)"><g><path fill="none" stroke="none"/><text fill="#000000" stroke="none" font-family="Arial" font-size="13px" font-style="normal" font-weight="normal" text-decoration="none" x="412.7373046875" y="89.5">«datastore»</text></g></g><g transform="translate(-46,-22) scale(1,1)"><g><path fill="none" stroke="none"/><text fill="#000000" stroke="none" font-family="Arial" font-size="13px" font-style="normal" font-weight="bold" text-decoration="none" x="415.641357421875" y="104.5">ControlFile</text></g></g><g transform="translate(-46,-22) scale(1,1)"><path fill="#ffffff" stroke="none" d="M 230 72 L 325.8818359375 72 Q 335.8818359375 72 335.8818359375 82 L 335.8818359375 102 Q 335.8818359375 112 325.8818359375 112 L 230 112 Q 220 112 220 102 L 220 82 Q 220 72 230 72 Z"/></g><g transform="translate(-46,-22) scale(1,1)"><path fill="none" stroke="#000000" d="M 230 72 L 325.8818359375 72 Q 335.8818359375 72 335.8818359375 82 L 335.8818359375 102 Q 335.8818359375 112 325.8818359375 112 L 230 112 Q 220 112 220 102 L 220 82 Q 220 72 230 72 Z" stroke-miterlimit="10"/></g><g transform="translate(-46,-22) scale(1,1)"><g><path fill="none" stroke="none"/><text fill="#000000" stroke="none" font-family="Arial" font-size="13px" font-style="normal" font-weight="bold" text-decoration="none" x="228.44189453125" y="91.5">Load Control File</text></g></g><g transform="translate(-46,-22) scale(1,1)"><path fill="none" stroke="#000000" d="M 391 91 L 337 91" stroke-miterlimit="10"/></g><g transform="translate(-46,-22) scale(1,1)"><path fill="none" stroke="#000000" d="M 347.16267485762415 86.79048224398402 L 337 91 L 347.16267485762415 95.20951775601598" stroke-miterlimit="10"/></g><g transform="translate(-46,-22) scale(1,1)"><path fill="#ffffff" stroke="none" d="M 266 137 L 277 128 L 288 137 L 277 146 L 266 137"/></g><g transform="translate(-46,-22) scale(1,1)"><path fill="none" stroke="#000000" d="M 266 137 L 277 128 L 288 137 L 277 146 L 266 137 L 266 137" stroke-miterlimit="10"/></g><g transform="translate(-46,-22) scale(1,1)"><path fill="none" stroke="#000000" d="M 277 113 L 277 127" stroke-miterlimit="10"/></g><g transform="translate(-46,-22) scale(1,1)"><path fill="none" stroke="#000000" d="M 272.790482243984 116.83732514237585 L 277 127 L 281.209517756016 116.83732514237585" stroke-miterlimit="10"/></g><g transform="translate(-46,-22) scale(1,1)"><rect fill="#ffffff" stroke="none" x="96" y="168" width="89.18359375" height="24"/></g><g transform="translate(-46,-22) scale(1,1)"><path fill="none" stroke="#000000" d="M 96 168 L 185.18359375 168 L 185.18359375 192 L 96 192 L 96 168 Z Z" stroke-miterlimit="10"/></g><g transform="translate(-46,-22) scale(1,1)"><rect fill="#ffffff" stroke="none" x="96" y="168" width="89.18359375" height="24"/></g><g transform="translate(-46,-22) scale(1,1)"><path fill="none" stroke="#000000" d="M 96 168 L 185.18359375 168 L 185.18359375 192 L 96 192 L 96 168 Z Z" stroke-miterlimit="10"/></g><g transform="translate(-46,-22) scale(1,1)"><g><path fill="none" stroke="none"/><text fill="#000000" stroke="none" font-family="Arial" font-size="13px" font-style="normal" font-weight="bold" text-decoration="none" x="109.53271484375" y="187.5">Grammar1</text></g></g><g transform="translate(-46,-22) scale(1,1)"><rect fill="#ffffff" stroke="none" x="96" y="224" width="89.18359375" height="24"/></g><g transform="translate(-46,-22) scale(1,1)"><path fill="none" stroke="#000000" d="M 96 224 L 185.18359375 224 L 185.18359375 248 L 96 248 L 96 224 Z Z" stroke-miterlimit="10"/></g><g transform="translate(-46,-22) scale(1,1)"><rect fill="#ffffff" stroke="none" x="96" y="224" width="89.18359375" height="24"/></g><g transform="translate(-46,-22) scale(1,1)"><path fill="none" stroke="#000000" d="M 96 224 L 185.18359375 224 L 185.18359375 248 L 96 248 L 96 224 Z Z" stroke-miterlimit="10"/></g><g transform="translate(-46,-22) scale(1,1)"><g><path fill="none" stroke="none"/><text fill="#000000" stroke="none" font-family="Arial" font-size="13px" font-style="normal" font-weight="bold" text-decoration="none" x="109.53271484375" y="243.5">Grammar2</text></g></g><g transform="translate(-46,-22) scale(1,1)"><path fill="#ffffff" stroke="none" d="M 233 192 L 321.70263671875 192 Q 331.70263671875 192 331.70263671875 202 L 331.70263671875 222 Q 331.70263671875 232 321.70263671875 232 L 233 232 Q 223 232 223 222 L 223 202 Q 223 192 233 192 Z"/></g><g transform="translate(-46,-22) scale(1,1)"><path fill="none" stroke="#000000" d="M 233 192 L 321.70263671875 192 Q 331.70263671875 192 331.70263671875 202 L 331.70263671875 222 Q 331.70263671875 232 321.70263671875 232 L 233 232 Q 223 232 223 222 L 223 202 Q 223 192 233 192 Z" stroke-miterlimit="10"/></g><g transform="translate(-46,-22) scale(1,1)"><g><path fill="none" stroke="none"/><text fill="#000000" stroke="none" font-family="Arial" font-size="13px" font-style="normal" font-weight="bold" text-decoration="none" x="230.391357421875" y="211.5">Load Grammars</text></g></g><g transform="translate(-46,-22) scale(1,1)"><rect fill="#ffffff" stroke="none" x="392" y="168" width="110.13720703125" height="37"/></g><g transform="translate(-46,-22) scale(1,1)"><path fill="none" stroke="#000000" d="M 392 168 L 502.13720703125 168 L 502.13720703125 205 L 392 205 L 392 168 Z Z" stroke-miterlimit="10"/></g><g transform="translate(-46,-22) scale(1,1)"><rect fill="#ffffff" stroke="none" x="392" y="168" width="110.13720703125" height="37"/></g><g transform="translate(-46,-22) scale(1,1)"><path fill="none" stroke="#000000" d="M 392 168 L 502.13720703125 168 L 502.13720703125 205 L 392 205 L 392 168 Z Z" stroke-miterlimit="10"/></g><g transform="translate(-46,-22) scale(1,1)"><g><path fill="none" stroke="none"/><text fill="#000000" stroke="none" font-family="Arial" font-size="13px" font-style="normal" font-weight="normal" text-decoration="none" x="412.7373046875" y="185.5">«datastore»</text></g></g><g transform="translate(-46,-22) scale(1,1)"><g><path fill="none" stroke="none"/><text fill="#000000" stroke="none" font-family="Arial" font-size="13px" font-style="normal" font-weight="bold" text-decoration="none" x="404.088623046875" y="200.5">Grammar1 Def</text></g></g><g transform="translate(-46,-22) scale(1,1)"><rect fill="#ffffff" stroke="none" x="392" y="216" width="110.13720703125" height="37"/></g><g transform="translate(-46,-22) scale(1,1)"><path fill="none" stroke="#000000" d="M 392 216 L 502.13720703125 216 L 502.13720703125 253 L 392 253 L 392 216 Z Z" stroke-miterlimit="10"/></g><g transform="translate(-46,-22) scale(1,1)"><rect fill="#ffffff" stroke="none" x="392" y="216" width="110.13720703125" height="37"/></g><g transform="translate(-46,-22) scale(1,1)"><path fill="none" stroke="#000000" d="M 392 216 L 502.13720703125 216 L 502.13720703125 253 L 392 253 L 392 216 Z Z" stroke-miterlimit="10"/></g><g transform="translate(-46,-22) scale(1,1)"><g><path fill="none" stroke="none"/><text fill="#000000" stroke="none" font-family="Arial" font-size="13px" font-style="normal" font-weight="normal" text-decoration="none" x="412.7373046875" y="233.5">«datastore»</text></g></g><g transform="translate(-46,-22) scale(1,1)"><g><path fill="none" stroke="none"/><text fill="#000000" stroke="none" font-family="Arial" font-size="13px" font-style="normal" font-weight="bold" text-decoration="none" x="404.088623046875" y="248.5">Grammar2 Def</text></g></g><g transform="translate(-46,-22) scale(1,1)"><path fill="none" stroke="#000000" d="M 222 199 L 186 191" stroke-miterlimit="10"/></g><g transform="translate(-46,-22) scale(1,1)"><path fill="none" stroke="#000000" d="M 196.8338443068778 189.09531694648916 L 186 191 L 195.00749907886117 197.31387047256396" stroke-miterlimit="10"/></g><g transform="translate(-46,-22) scale(1,1)"><path fill="none" stroke="#000000" d="M 222 222 L 186 228" stroke-miterlimit="10"/></g><g transform="translate(-46,-22) scale(1,1)"><path fill="none" stroke="#000000" d="M 195.3323602733092 222.17702380829527 L 186 228 L 196.71644118557512 230.48150928189065" stroke-miterlimit="10"/></g><g transform="translate(-46,-22) scale(1,1)"><path fill="none" stroke="#000000" d="M 391 195 L 333 203" stroke-miterlimit="10"/></g><g transform="translate(-46,-22) scale(1,1)"><path fill="none" stroke="#000000" d="M 342.49218289420975 197.44136132646926 L 333 203 L 343.6425379929781 205.7814357925393" stroke-miterlimit="10"/></g><g transform="translate(-46,-22) scale(1,1)"><path fill="none" stroke="#000000" d="M 391 227 L 333 219" stroke-miterlimit="10"/></g><g transform="translate(-46,-22) scale(1,1)"><path fill="none" stroke="#000000" d="M 343.6425379929781 216.2185642074607 L 333 219 L 342.49218289420975 224.55863867353074" stroke-miterlimit="10"/></g><g transform="translate(-46,-22) scale(1,1)"><path fill="none" stroke="#000000" d="M 277 147 L 277 191" stroke-miterlimit="10"/></g><g transform="translate(-46,-22) scale(1,1)"><path fill="none" stroke="#000000" d="M 272.790482243984 180.83732514237585 L 277 191 L 281.209517756016 180.83732514237585" stroke-miterlimit="10"/></g><g transform="translate(-46,-22) scale(1,1)"><path fill="#ffffff" stroke="none" d="M 243 280 L 311.47900390625 280 Q 321.47900390625 280 321.47900390625 290 L 321.47900390625 310 Q 321.47900390625 320 311.47900390625 320 L 243 320 Q 233 320 233 310 L 233 290 Q 233 280 243 280 Z"/></g><g transform="translate(-46,-22) scale(1,1)"><path fill="none" stroke="#000000" d="M 243 280 L 311.47900390625 280 Q 321.47900390625 280 321.47900390625 290 L 321.47900390625 310 Q 321.47900390625 320 311.47900390625 320 L 243 320 Q 233 320 233 310 L 233 290 Q 233 280 243 280 Z" stroke-miterlimit="10"/></g><g transform="translate(-46,-22) scale(1,1)"><g><path fill="none" stroke="none"/><text fill="#000000" stroke="none" font-family="Arial" font-size="13px" font-style="normal" font-weight="bold" text-decoration="none" x="239.91845703125" y="299.5">Trivial Merge</text></g></g><g transform="translate(-46,-22) scale(1,1)"><path fill="none" stroke="#000000" d="M 136 248 L 136 288 L 233 288" stroke-miterlimit="10"/></g><g transform="translate(-46,-22) scale(1,1)"><path fill="none" stroke="#000000" d="M 222.83732514237585 292.209517756016 L 233 288 L 222.83732514237585 283.790482243984" stroke-miterlimit="10"/></g><g transform="translate(-46,-22) scale(1,1)"><path fill="none" stroke="#000000" d="M 96 184 L 80 184 L 80 312 L 233 312" stroke-miterlimit="10"/></g><g transform="translate(-46,-22) scale(1,1)"><path fill="none" stroke="#000000" d="M 222.83732514237585 316.209517756016 L 233 312 L 222.83732514237585 307.790482243984" stroke-miterlimit="10"/></g><g transform="translate(-46,-22) scale(1,1)"><rect fill="#ffffff" stroke="none" x="392" y="288" width="113.0380859375" height="24"/></g><g transform="translate(-46,-22) scale(1,1)"><path fill="none" stroke="#000000" d="M 392 288 L 505.0380859375 288 L 505.0380859375 312 L 392 312 L 392 288 Z Z" stroke-miterlimit="10"/></g><g transform="translate(-46,-22) scale(1,1)"><rect fill="#ffffff" stroke="none" x="392" y="288" width="113.0380859375" height="24"/></g><g transform="translate(-46,-22) scale(1,1)"><path fill="none" stroke="#000000" d="M 392 288 L 505.0380859375 288 L 505.0380859375 312 L 392 312 L 392 288 Z Z" stroke-miterlimit="10"/></g><g transform="translate(-46,-22) scale(1,1)"><g><path fill="none" stroke="none"/><text fill="#000000" stroke="none" font-family="Arial" font-size="13px" font-style="normal" font-weight="bold" text-decoration="none" x="399.035888671875" y="307.5">MergedGrammar</text></g></g><g transform="translate(-46,-22) scale(1,1)"><path fill="none" stroke="#000000" d="M 322 300 L 391 300" stroke-miterlimit="10"/></g><g transform="translate(-46,-22) scale(1,1)"><path fill="none" stroke="#000000" d="M 380.83732514237585 304.209517756016 L 391 300 L 380.83732514237585 295.790482243984" stroke-miterlimit="10"/></g><g transform="translate(-46,-22) scale(1,1)"><path fill="none" stroke="#000000" d="M 277 233 L 277 279" stroke-miterlimit="10"/></g><g transform="translate(-46,-22) scale(1,1)"><path fill="none" stroke="#000000" d="M 272.790482243984 268.83732514237585 L 277 279 L 281.209517756016 268.83732514237585" stroke-miterlimit="10"/></g><g transform="translate(-46,-22) scale(1,1)"><path fill="#ffffff" stroke="none" d="M 232 352 L 322.8798828125 352 Q 332.8798828125 352 332.8798828125 362 L 332.8798828125 382 Q 332.8798828125 392 322.8798828125 392 L 232 392 Q 222 392 222 382 L 222 362 Q 222 352 232 352 Z"/></g><g transform="translate(-46,-22) scale(1,1)"><path fill="none" stroke="#000000" d="M 232 352 L 322.8798828125 352 Q 332.8798828125 352 332.8798828125 362 L 332.8798828125 382 Q 332.8798828125 392 322.8798828125 392 L 232 392 Q 222 392 222 382 L 222 362 Q 222 352 232 352 Z" stroke-miterlimit="10"/></g><g transform="translate(-46,-22) scale(1,1)"><g><path fill="none" stroke="none"/><text fill="#000000" stroke="none" font-family="Arial" font-size="13px" font-style="normal" font-weight="bold" text-decoration="none" x="229.40087890625" y="371.5">Measure Metrics</text></g></g><g transform="translate(-46,-22) scale(1,1)"><path fill="none" stroke="#000000" d="M 448 312 L 448 368 L 333 368" stroke-miterlimit="10"/></g><g transform="translate(-46,-22) scale(1,1)"><path fill="none" stroke="#000000" d="M 343.16267485762415 363.790482243984 L 333 368 L 343.16267485762415 372.209517756016" stroke-miterlimit="10"/></g><g transform="translate(-46,-22) scale(1,1)"><path fill="#ffffff" stroke="none" d="M 252 440 L 303.130859375 440 Q 313.130859375 440 313.130859375 450 L 313.130859375 470 Q 313.130859375 480 303.130859375 480 L 252 480 Q 242 480 242 470 L 242 450 Q 242 440 252 440 Z"/></g><g transform="translate(-46,-22) scale(1,1)"><path fill="none" stroke="#000000" d="M 252 440 L 303.130859375 440 Q 313.130859375 440 313.130859375 450 L 313.130859375 470 Q 313.130859375 480 303.130859375 480 L 252 480 Q 242 480 242 470 L 242 450 Q 242 440 252 440 Z" stroke-miterlimit="10"/></g><g transform="translate(-46,-22) scale(1,1)"><g><path fill="none" stroke="none"/><text fill="#000000" stroke="none" font-family="Arial" font-size="13px" font-style="normal" font-weight="bold" text-decoration="none" x="248.30908203125" y="459.5">Normalize</text></g></g><g transform="translate(-46,-22) scale(1,1)"><path fill="#ffffff" stroke="none" d="M 266 417 L 277 408 L 288 417 L 277 426 L 266 417"/></g><g transform="translate(-46,-22) scale(1,1)"><path fill="none" stroke="#000000" d="M 266 417 L 277 408 L 288 417 L 277 426 L 266 417 L 266 417" stroke-miterlimit="10"/></g><g transform="translate(-46,-22) scale(1,1)"><path fill="none" stroke="#000000" d="M 277 393 L 277 407" stroke-miterlimit="10"/></g><g transform="translate(-46,-22) scale(1,1)"><path fill="none" stroke="#000000" d="M 272.790482243984 396.83732514237585 L 277 407 L 281.209517756016 396.83732514237585" stroke-miterlimit="10"/></g><g transform="translate(-46,-22) scale(1,1)"><path fill="none" stroke="#000000" d="M 277 427 L 277 439" stroke-miterlimit="10"/></g><g transform="translate(-46,-22) scale(1,1)"><path fill="none" stroke="#000000" d="M 272.790482243984 428.83732514237585 L 277 439 L 281.209517756016 428.83732514237585" stroke-miterlimit="10"/></g><g transform="translate(-46,-22) scale(1,1)"><path fill="none" stroke="#000000" d="M 277 321 L 277 351" stroke-miterlimit="10"/></g><g transform="translate(-46,-22) scale(1,1)"><path fill="none" stroke="#000000" d="M 272.790482243984 340.83732514237585 L 277 351 L 281.209517756016 340.83732514237585" stroke-miterlimit="10"/></g><g transform="translate(-46,-22) scale(1,1)"><path fill="#ffffff" stroke="none" d="M 218 504 L 337.78076171875 504 Q 347.78076171875 504 347.78076171875 514 L 347.78076171875 534 Q 347.78076171875 544 337.78076171875 544 L 218 544 Q 208 544 208 534 L 208 514 Q 208 504 218 504 Z"/></g><g transform="translate(-46,-22) scale(1,1)"><path fill="none" stroke="#000000" d="M 218 504 L 337.78076171875 504 Q 347.78076171875 504 347.78076171875 514 L 347.78076171875 534 Q 347.78076171875 544 337.78076171875 544 L 218 544 Q 208 544 208 534 L 208 514 Q 208 504 218 504 Z" stroke-miterlimit="10"/></g><g transform="translate(-46,-22) scale(1,1)"><g><path fill="none" stroke="none"/><text fill="#000000" stroke="none" font-family="Arial" font-size="13px" font-style="normal" font-weight="bold" text-decoration="none" x="217.5654296875" y="523.5">Calculate Similarities</text></g></g><g transform="translate(-46,-22) scale(1,1)"><path fill="#ffffff" stroke="none" d="M 258 567 L 297 567 Q 307 567 307 577 L 307 597 Q 307 607 297 607 L 258 607 Q 248 607 248 597 L 248 577 Q 248 567 258 567 Z"/></g><g transform="translate(-46,-22) scale(1,1)"><path fill="none" stroke="#000000" d="M 258 567 L 297 567 Q 307 567 307 577 L 307 597 Q 307 607 297 607 L 258 607 Q 248 607 248 597 L 248 577 Q 248 567 258 567 Z" stroke-miterlimit="10"/></g><g transform="translate(-46,-22) scale(1,1)"><g><path fill="none" stroke="none"/><text fill="#000000" stroke="none" font-family="Arial" font-size="13px" font-style="normal" font-weight="bold" text-decoration="none" x="259.075927734375" y="586.5">Merge</text></g></g><g transform="translate(-46,-22) scale(1,1)"><path fill="#ffffff" stroke="none" d="M 232 656 L 322.8798828125 656 Q 332.8798828125 656 332.8798828125 666 L 332.8798828125 686 Q 332.8798828125 696 322.8798828125 696 L 232 696 Q 222 696 222 686 L 222 666 Q 222 656 232 656 Z"/></g><g transform="translate(-46,-22) scale(1,1)"><path fill="none" stroke="#000000" d="M 232 656 L 322.8798828125 656 Q 332.8798828125 656 332.8798828125 666 L 332.8798828125 686 Q 332.8798828125 696 322.8798828125 696 L 232 696 Q 222 696 222 686 L 222 666 Q 222 656 232 656 Z" stroke-miterlimit="10"/></g><g transform="translate(-46,-22) scale(1,1)"><g><path fill="none" stroke="none"/><text fill="#000000" stroke="none" font-family="Arial" font-size="13px" font-style="normal" font-weight="bold" text-decoration="none" x="229.40087890625" y="675.5">Measure Metrics</text></g></g><g transform="translate(-46,-22) scale(1,1)"><path fill="#ffffff" stroke="none" d="M 266 633 L 277 624 L 288 633 L 277 642 L 266 633"/></g><g transform="translate(-46,-22) scale(1,1)"><path fill="none" stroke="#000000" d="M 266 633 L 277 624 L 288 633 L 277 642 L 266 633 L 266 633" stroke-miterlimit="10"/></g><g transform="translate(-46,-22) scale(1,1)"><path fill="none" stroke="#000000" d="M 277 608 L 277 623" stroke-miterlimit="10"/></g><g transform="translate(-46,-22) scale(1,1)"><path fill="none" stroke="#000000" d="M 272.790482243984 612.8373251423759 L 277 623 L 281.209517756016 612.8373251423759" stroke-miterlimit="10"/></g><g transform="translate(-46,-22) scale(1,1)"><path fill="none" stroke="#000000" d="M 277 643 L 277 655" stroke-miterlimit="10"/></g><g transform="translate(-46,-22) scale(1,1)"><path fill="none" stroke="#000000" d="M 272.790482243984 644.8373251423759 L 277 655 L 281.209517756016 644.8373251423759" stroke-miterlimit="10"/></g><g transform="translate(-46,-22) scale(1,1)"><path fill="none" stroke="#000000" d="M 266 632 L 192 632 L 192 416 L 266 416" stroke-miterlimit="10"/></g><g transform="translate(-46,-22) scale(1,1)"><path fill="none" stroke="#000000" d="M 255.83732514237585 420.209517756016 L 266 416 L 255.83732514237585 411.790482243984" stroke-miterlimit="10"/></g><g transform="translate(-46,-22) scale(1,1)"><path fill="none" stroke="#000000" d="M 277 545 L 277 566" stroke-miterlimit="10"/></g><g transform="translate(-46,-22) scale(1,1)"><path fill="none" stroke="#000000" d="M 272.790482243984 555.8373251423759 L 277 566 L 281.209517756016 555.8373251423759" stroke-miterlimit="10"/></g><g transform="translate(-46,-22) scale(1,1)"><path fill="none" stroke="#000000" d="M 277 481 L 277 503" stroke-miterlimit="10"/></g><g transform="translate(-46,-22) scale(1,1)"><path fill="none" stroke="#000000" d="M 272.790482243984 492.83732514237585 L 277 503 L 281.209517756016 492.83732514237585" stroke-miterlimit="10"/></g><g transform="translate(-46,-22) scale(1,1)"><rect fill="#ffffff" stroke="none" x="400" y="575" width="100.75537109375" height="24"/></g><g transform="translate(-46,-22) scale(1,1)"><path fill="none" stroke="#000000" d="M 400 575 L 500.75537109375 575 L 500.75537109375 599 L 400 599 L 400 575 Z Z" stroke-miterlimit="10"/></g><g transform="translate(-46,-22) scale(1,1)"><rect fill="#ffffff" stroke="none" x="400" y="575" width="100.75537109375" height="24"/></g><g transform="translate(-46,-22) scale(1,1)"><path fill="none" stroke="#000000" d="M 400 575 L 500.75537109375 575 L 500.75537109375 599 L 400 599 L 400 575 Z Z" stroke-miterlimit="10"/></g><g transform="translate(-46,-22) scale(1,1)"><g><path fill="none" stroke="none"/><text fill="#000000" stroke="none" font-family="Arial" font-size="13px" font-style="normal" font-weight="bold" text-decoration="none" x="407.0390625" y="594.5">Final Grammar</text></g></g><g transform="translate(-46,-22) scale(1,1)"><path fill="none" stroke="#000000" d="M 308 587 L 399 587" stroke-miterlimit="10"/></g><g transform="translate(-46,-22) scale(1,1)"><path fill="none" stroke="#000000" d="M 388.83732514237585 591.209517756016 L 399 587 L 388.83732514237585 582.790482243984" stroke-miterlimit="10"/></g><g transform="translate(-46,-22) scale(1,1)"><path fill="none" stroke="#000000" d="M 448 599 L 448 676 L 333 676" stroke-miterlimit="10"/></g><g transform="translate(-46,-22) scale(1,1)"><path fill="none" stroke="#000000" d="M 343.16267485762415 671.790482243984 L 333 676 L 343.16267485762415 680.209517756016" stroke-miterlimit="10"/></g><g transform="translate(-46,-22) scale(1,1)"><path fill="#ffffff" stroke="none" d="M 266 729 L 277 720 L 288 729 L 277 738 L 266 729"/></g><g transform="translate(-46,-22) scale(1,1)"><path fill="none" stroke="#000000" d="M 266 729 L 277 720 L 288 729 L 277 738 L 266 729 L 266 729" stroke-miterlimit="10"/></g><g transform="translate(-46,-22) scale(1,1)"><path fill="none" stroke="#000000" d="M 277 697 L 277 719" stroke-miterlimit="10"/></g><g transform="translate(-46,-22) scale(1,1)"><path fill="none" stroke="#000000" d="M 272.790482243984 708.8373251423759 L 277 719 L 281.209517756016 708.8373251423759" stroke-miterlimit="10"/></g><g transform="translate(-46,-22) scale(1,1)"><path fill="none" stroke="#000000" d="M 266 729 L 56 729 L 56 136 L 266 136" stroke-miterlimit="10"/></g><g transform="translate(-46,-22) scale(1,1)"><path fill="none" stroke="#000000" d="M 255.83732514237585 140.209517756016 L 266 136 L 255.83732514237585 131.790482243984" stroke-miterlimit="10"/></g><g transform="translate(-46,-22) scale(1,1)"><rect fill="#ffffff" stroke="none" x="392" y="761" width="110.13720703125" height="37"/></g><g transform="translate(-46,-22) scale(1,1)"><path fill="none" stroke="#000000" d="M 392 761 L 502.13720703125 761 L 502.13720703125 798 L 392 798 L 392 761 Z Z" stroke-miterlimit="10"/></g><g transform="translate(-46,-22) scale(1,1)"><rect fill="#ffffff" stroke="none" x="392" y="761" width="110.13720703125" height="37"/></g><g transform="translate(-46,-22) scale(1,1)"><path fill="none" stroke="#000000" d="M 392 761 L 502.13720703125 761 L 502.13720703125 798 L 392 798 L 392 761 Z Z" stroke-miterlimit="10"/></g><g transform="translate(-46,-22) scale(1,1)"><g><path fill="none" stroke="none"/><text fill="#000000" stroke="none" font-family="Arial" font-size="13px" font-style="normal" font-weight="normal" text-decoration="none" x="412.7373046875" y="778.5">«datastore»</text></g></g><g transform="translate(-46,-22) scale(1,1)"><g><path fill="none" stroke="none"/><text fill="#000000" stroke="none" font-family="Arial" font-size="13px" font-style="normal" font-weight="bold" text-decoration="none" x="425.39453125" y="793.5">Results</text></g></g><g transform="translate(-46,-22) scale(1,1)"><path fill="#ffffff" stroke="none" d="M 236 759 L 318.16455078125 759 Q 328.16455078125 759 328.16455078125 769 L 328.16455078125 789 Q 328.16455078125 799 318.16455078125 799 L 236 799 Q 226 799 226 789 L 226 769 Q 226 759 236 759 Z"/></g><g transform="translate(-46,-22) scale(1,1)"><path fill="none" stroke="#000000" d="M 236 759 L 318.16455078125 759 Q 328.16455078125 759 328.16455078125 769 L 328.16455078125 789 Q 328.16455078125 799 318.16455078125 799 L 236 799 Q 226 799 226 789 L 226 769 Q 226 759 236 759 Z" stroke-miterlimit="10"/></g><g transform="translate(-46,-22) scale(1,1)"><g><path fill="none" stroke="none"/><text fill="#000000" stroke="none" font-family="Arial" font-size="13px" font-style="normal" font-weight="bold" text-decoration="none" x="234.089599609375" y="778.5">Output Results</text></g></g><g transform="translate(-46,-22) scale(1,1)"><path fill="none" stroke="#000000" d="M 277 739 L 277 758" stroke-miterlimit="10"/></g><g transform="translate(-46,-22) scale(1,1)"><path fill="none" stroke="#000000" d="M 272.790482243984 747.8373251423759 L 277 758 L 281.209517756016 747.8373251423759" stroke-miterlimit="10"/></g><g transform="translate(-46,-22) scale(1,1)"><path fill="none" stroke="#000000" d="M 329 779 L 391 779" stroke-miterlimit="10"/></g><g transform="translate(-46,-22) scale(1,1)"><path fill="none" stroke="#000000" d="M 380.83732514237585 783.209517756016 L 391 779 L 380.83732514237585 774.790482243984" stroke-miterlimit="10"/></g><g transform="translate(-46,-22) scale(1,1)"><path fill="none" stroke="#000000" d="M 265 828.5 C 265 821.59644 270.59644 816 277.5 816 C 284.40356 816 290 821.59644 290 828.5 C 290 835.40356 284.40356 841 277.5 841 C 270.59644 841 265 835.40356 265 828.5 Z" stroke-miterlimit="10"/></g><g transform="translate(-46,-22) scale(1,1)"><path fill="#000000" stroke="none" d="M 270 828.5 C 270 824.357864 273.357864 821 277.5 821 C 281.642136 821 285 824.357864 285 828.5 C 285 832.642136 281.642136 836 277.5 836 C 273.357864 836 270 832.642136 270 828.5 Z"/></g><g transform="translate(-46,-22) scale(1,1)"><path fill="none" stroke="#000000" d="M 277 800 L 277 815" stroke-miterlimit="10"/></g><g transform="translate(-46,-22) scale(1,1)"><path fill="none" stroke="#000000" d="M 272.790482243984 804.8373251423759 L 277 815 L 281.209517756016 804.8373251423759" stroke-miterlimit="10"/></g><g transform="translate(-46,-22) scale(1,1)"><path fill="#000000" stroke="none" d="M 268 41.5 C 268 36.2532944 272.2532944 32 277.5 32 C 282.7467056 32 287 36.2532944 287 41.5 C 287 46.7467056 282.7467056 51 277.5 51 C 272.2532944 51 268 46.7467056 268 41.5 Z"/></g><g transform="translate(-46,-22) scale(1,1)"><path fill="none" stroke="#000000" d="M 277 52 L 277 71" stroke-miterlimit="10"/></g><g transform="translate(-46,-22) scale(1,1)"><path fill="none" stroke="#000000" d="M 272.790482243984 60.837325142375846 L 277 71 L 281.209517756016 60.837325142375846" stroke-miterlimit="10"/></g><g transform="translate(-46,-22) scale(1,1)"><g><path fill="none" stroke="none"/><text fill="#000000" stroke="none" font-family="Arial" font-size="13px" font-style="normal" font-weight="normal" text-decoration="none" x="293" y="138">For each triple</text><text fill="#000000" stroke="none" font-family="Arial" font-size="13px" font-style="normal" font-weight="normal" text-decoration="none" x="293" y="151">in control file</text></g></g><g transform="translate(-46,-22) scale(1,1)"><g><path fill="none" stroke="none"/><text fill="#000000" stroke="none" font-family="Arial" font-size="13px" font-style="normal" font-weight="normal" text-decoration="none" x="301" y="418">Until nothing left</text><text fill="#000000" stroke="none" font-family="Arial" font-size="13px" font-style="normal" font-weight="normal" text-decoration="none" x="301" y="431">to merge.</text></g></g></g></svg>