<?xml version="1.0" encoding="UTF-8" standalone="no"?>
<!DOCTYPE svg PUBLIC "-//W3C//DTD SVG 1.1//EN"
 "http://www.w3.org/Graphics/SVG/1.1/DTD/svg11.dtd">
<!-- Generated by graphviz version 2.40.1 (20161225.0304)
 -->
<!-- Title: S Pages: 1 -->
<svg width="237pt" height="218pt"
 viewBox="0.00 0.00 237.40 218.00" xmlns="http://www.w3.org/2000/svg" xmlns:xlink="http://www.w3.org/1999/xlink">
<g id="graph0" class="graph" transform="scale(1 1) rotate(0) translate(4 214)">
<title>S</title>
<polygon fill="#ffffff" stroke="transparent" points="-4,4 -4,-214 233.3956,-214 233.3956,4 -4,4"/>
<!-- S -->
<g id="node1" class="node">
<title>S</title>
<ellipse fill="none" stroke="#000000" cx="134.3956" cy="-192" rx="37.0935" ry="18"/>
<text text-anchor="middle" x="134.3956" y="-188.3" font-family="Times,serif" font-size="14.00" fill="#000000">Rule: S</text>
</g>
<!-- P1 -->
<g id="node2" class="node">
<title>P1</title>
<ellipse fill="none" stroke="#000000" cx="49.3956" cy="-105" rx="49.2915" ry="18"/>
<text text-anchor="middle" x="49.3956" y="-101.3" font-family="Times,serif" font-size="14.00" fill="#000000">Production</text>
</g>
<!-- S&#45;&gt;P1 -->
<g id="edge1" class="edge">
<title>S&#45;&gt;P1</title>
<path fill="none" stroke="#000000" d="M118.4078,-175.636C105.7126,-162.6421 87.7625,-144.2696 73.3512,-129.5192"/>
<polygon fill="#000000" stroke="#000000" points="75.676,-126.8904 66.1841,-122.1835 70.669,-131.7823 75.676,-126.8904"/>
</g>
<!-- P2 -->
<g id="node3" class="node">
<title>P2</title>
<ellipse fill="none" stroke="#000000" cx="166.3956" cy="-105" rx="49.2915" ry="18"/>
<text text-anchor="middle" x="166.3956" y="-101.3" font-family="Times,serif" font-size="14.00" fill="#000000">Production</text>
</g>
<!-- S&#45;&gt;P2 -->
<g id="edge2" class="edge">
<title>S&#45;&gt;P2</title>
<path fill="none" stroke="#000000" d="M130.1811,-173.9286C128.6908,-163.8917 128.2708,-151.3749 132.3956,-141 134.0035,-136.9558 136.3051,-133.1032 138.9631,-129.5247"/>
<polygon fill="#000000" stroke="#000000" points="141.8082,-131.5833 145.6534,-121.7109 136.4909,-127.0306 141.8082,-131.5833"/>
</g>
<!-- P2&#45;&gt;S -->
<g id="edge4" class="edge">
<title>P2&#45;&gt;S</title>
<path fill="none" stroke="#000000" d="M159.7737,-123.0034C155.3991,-134.8967 149.5791,-150.72 144.6161,-164.2132"/>
<polygon fill="#000000" stroke="#000000" points="141.1933,-163.38 141.026,-173.9735 147.763,-165.7965 141.1933,-163.38"/>
<text text-anchor="middle" x="154.8956" y="-144.8" font-family="Times,serif" font-size="14.00" fill="#000000">1</text>
</g>
<!-- P2&#45;&gt;S -->
<g id="edge6" class="edge">
<title>P2&#45;&gt;S</title>
<path fill="none" stroke="#000000" d="M165.942,-123.4594C165.1887,-133.3864 163.4206,-145.6747 159.3956,-156 158.0155,-159.5404 156.2226,-163.0694 154.2303,-166.4567"/>
<polygon fill="#000000" stroke="#000000" points="151.1849,-164.7187 148.638,-175.0029 157.0423,-168.5516 151.1849,-164.7187"/>
<text text-anchor="middle" x="166.8956" y="-144.8" font-family="Times,serif" font-size="14.00" fill="#000000">3</text>
</g>
<!-- ( -->
<g id="node4" class="node">
<title>(</title>
<ellipse fill="none" stroke="#000000" cx="130.3956" cy="-18" rx="27" ry="18"/>
<text text-anchor="middle" x="130.3956" y="-14.3" font-family="Times,serif" font-size="14.00" fill="#000000">(</text>
</g>
<!-- P2&#45;&gt;( -->
<g id="edge3" class="edge">
<title>P2&#45;&gt;(</title>
<path fill="none" stroke="#000000" d="M158.9364,-86.9735C153.8984,-74.7983 147.1593,-58.5122 141.4947,-44.8228"/>
<polygon fill="#000000" stroke="#000000" points="144.6573,-43.3116 137.5996,-35.4097 138.1891,-45.9881 144.6573,-43.3116"/>
<text text-anchor="middle" x="153.8956" y="-57.8" font-family="Times,serif" font-size="14.00" fill="#000000">0</text>
</g>
<!-- ) -->
<g id="node5" class="node">
<title>)</title>
<ellipse fill="none" stroke="#000000" cx="202.3956" cy="-18" rx="27" ry="18"/>
<text text-anchor="middle" x="202.3956" y="-14.3" font-family="Times,serif" font-size="14.00" fill="#000000">)</text>
</g>
<!-- P2&#45;&gt;) -->
<g id="edge5" class="edge">
<title>P2&#45;&gt;)</title>
<path fill="none" stroke="#000000" d="M173.8548,-86.9735C178.8929,-74.7983 185.6319,-58.5122 191.2965,-44.8228"/>
<polygon fill="#000000" stroke="#000000" points="194.6021,-45.9881 195.1916,-35.4097 188.134,-43.3116 194.6021,-45.9881"/>
<text text-anchor="middle" x="189.8956" y="-57.8" font-family="Times,serif" font-size="14.00" fill="#000000">2</text>
</g>
</g>
</svg>
