<svg version="1.1" xmlns="http://www.w3.org/2000/svg" xmlns:xlink="http://www.w3.org/1999/xlink" width="391.419921875" height="293"><defs/><g><g transform="translate(-14,-157) scale(1,1)"><rect fill="#C0C0C0" stroke="none" x="31" y="175" width="77.60546875" height="32" opacity="0.2"/></g><g transform="translate(-14,-157) scale(1,1)"><rect fill="#ffffff" stroke="none" x="24" y="168" width="77.60546875" height="32"/></g><g transform="translate(-14,-157) scale(1,1)"><path fill="none" stroke="#000000" d="M 24 168 L 101.60546875 168 L 101.60546875 200 L 24 200 L 24 168 Z Z" stroke-miterlimit="10"/></g><g transform="translate(-14,-157) scale(1,1)"><g><path fill="none" stroke="none"/><text fill="#000000" stroke="none" font-family="Arial" font-size="13px" font-style="normal" font-weight="bold" text-decoration="none" x="31.727783203125" y="187.5">Production</text></g></g><g transform="translate(-14,-157) scale(1,1)"><rect fill="#C0C0C0" stroke="none" x="194" y="175" width="50.919921875" height="32" opacity="0.2"/></g><g transform="translate(-14,-157) scale(1,1)"><rect fill="#ffffff" stroke="none" x="187" y="168" width="50.919921875" height="32"/></g><g transform="translate(-14,-157) scale(1,1)"><path fill="none" stroke="#000000" d="M 187 168 L 237.919921875 168 L 237.919921875 200 L 187 200 L 187 168 Z Z" stroke-miterlimit="10"/></g><g transform="translate(-14,-157) scale(1,1)"><g><path fill="none" stroke="none"/><text fill="#000000" stroke="none" font-family="Arial" font-size="13px" font-style="normal" font-weight="bold" text-decoration="none" x="199.091796875" y="187.5">Rule</text></g></g><g transform="translate(-14,-157) scale(1,1)"><rect fill="#C0C0C0" stroke="none" x="119" y="327" width="62.21875" height="32" opacity="0.2"/></g><g transform="translate(-14,-157) scale(1,1)"><rect fill="#ffffff" stroke="none" x="112" y="320" width="62.21875" height="32"/></g><g transform="translate(-14,-157) scale(1,1)"><path fill="none" stroke="#000000" d="M 112 320 L 174.21875 320 L 174.21875 352 L 112 352 L 112 320 Z Z" stroke-miterlimit="10"/></g><g transform="translate(-14,-157) scale(1,1)"><g><path fill="none" stroke="none"/><text fill="#000000" stroke="none" font-family="Arial" font-size="13px" font-style="normal" font-weight="bold" text-decoration="none" x="118.547119140625" y="339.5">Terminal</text></g></g><g transform="translate(-14,-157) scale(1,1)"><rect fill="#C0C0C0" stroke="none" x="87" y="415" width="50.919921875" height="32" opacity="0.2"/></g><g transform="translate(-14,-157) scale(1,1)"><rect fill="#ffffff" stroke="none" x="80" y="408" width="50.919921875" height="32"/></g><g transform="translate(-14,-157) scale(1,1)"><path fill="none" stroke="#000000" d="M 80 408 L 130.919921875 408 L 130.919921875 440 L 80 440 L 80 408 Z Z" stroke-miterlimit="10"/></g><g transform="translate(-14,-157) scale(1,1)"><g><path fill="none" stroke="none"/><text fill="#000000" stroke="none" font-family="Arial" font-size="13px" font-style="normal" font-weight="bold" text-decoration="none" x="87.0390625" y="427.5">Empty</text></g></g><g transform="translate(-14,-157) scale(1,1)"><rect fill="#C0C0C0" stroke="none" x="159" y="415" width="50.919921875" height="32" opacity="0.2"/></g><g transform="translate(-14,-157) scale(1,1)"><rect fill="#ffffff" stroke="none" x="152" y="408" width="50.919921875" height="32"/></g><g transform="translate(-14,-157) scale(1,1)"><path fill="none" stroke="#000000" d="M 152 408 L 202.919921875 408 L 202.919921875 440 L 152 440 L 152 408 Z Z" stroke-miterlimit="10"/></g><g transform="translate(-14,-157) scale(1,1)"><g><path fill="none" stroke="none"/><text fill="#000000" stroke="none" font-family="Arial" font-size="13px" font-style="normal" font-weight="bold" text-decoration="none" x="159.75634765625" y="427.5">Literal</text></g></g><g transform="translate(-14,-157) scale(1,1)"><rect fill="#C0C0C0" stroke="none" x="239" y="415" width="50.919921875" height="32" opacity="0.2"/></g><g transform="translate(-14,-157) scale(1,1)"><rect fill="#ffffff" stroke="none" x="232" y="408" width="50.919921875" height="32"/></g><g transform="translate(-14,-157) scale(1,1)"><path fill="none" stroke="#000000" d="M 232 408 L 282.919921875 408 L 282.919921875 440 L 232 440 L 232 408 Z Z" stroke-miterlimit="10"/></g><g transform="translate(-14,-157) scale(1,1)"><g><path fill="none" stroke="none"/><text fill="#000000" stroke="none" font-family="Arial" font-size="13px" font-style="normal" font-weight="bold" text-decoration="none" x="243.015869140625" y="427.5">Term</text></g></g><g transform="translate(-14,-157) scale(1,1)"><rect fill="#C0C0C0" stroke="none" x="319" y="415" width="83.419921875" height="32" opacity="0.2"/></g><g transform="translate(-14,-157) scale(1,1)"><rect fill="#ffffff" stroke="none" x="312" y="408" width="83.419921875" height="32"/></g><g transform="translate(-14,-157) scale(1,1)"><path fill="none" stroke="#000000" d="M 312 408 L 395.419921875 408 L 395.419921875 440 L 312 440 L 312 408 Z Z" stroke-miterlimit="10"/></g><g transform="translate(-14,-157) scale(1,1)"><g><path fill="none" stroke="none"/><text fill="#000000" stroke="none" font-family="Arial" font-size="13px" font-style="normal" font-weight="bold" text-decoration="none" x="319.75" y="427.5">Alternatives</text></g></g><g transform="translate(-14,-157) scale(1,1)"><rect fill="#C0C0C0" stroke="none" x="263" y="327" width="87.48876953125" height="32" opacity="0.2"/></g><g transform="translate(-14,-157) scale(1,1)"><rect fill="#ffffff" stroke="none" x="256" y="320" width="87.48876953125" height="32"/></g><g transform="translate(-14,-157) scale(1,1)"><path fill="none" stroke="#000000" d="M 256 320 L 343.48876953125 320 L 343.48876953125 352 L 256 352 L 256 320 Z Z" stroke-miterlimit="10"/></g><g transform="translate(-14,-157) scale(1,1)"><g><path fill="none" stroke="none"/><text fill="#000000" stroke="none" font-family="Arial" font-size="13px" font-style="normal" font-weight="bold" text-decoration="none" x="263.258056640625" y="339.5">NonTerminal</text></g></g><g transform="translate(-14,-157) scale(1,1)"><rect fill="#C0C0C0" stroke="none" x="192" y="247" width="55.95361328125" height="32" opacity="0.2"/></g><g transform="translate(-14,-157) scale(1,1)"><rect fill="#ffffff" stroke="none" x="185" y="240" width="55.95361328125" height="32"/></g><g transform="translate(-14,-157) scale(1,1)"><path fill="none" stroke="#000000" d="M 185 240 L 240.95361328125 240 L 240.95361328125 272 L 185 272 L 185 240 Z Z" stroke-miterlimit="10"/></g><g transform="translate(-14,-157) scale(1,1)"><g><path fill="none" stroke="none"/><text fill="#000000" stroke="none" font-family="Arial" font-size="13px" font-style="normal" font-weight="bold" text-decoration="none" x="191.302734375" y="259.5">Symbol</text></g></g><g transform="translate(-14,-157) scale(1,1)"><path fill="none" stroke="#000000" d="M 143 320 L 143 310 L 212 310 L 212 272" stroke-miterlimit="10"/></g><g transform="translate(-14,-157) scale(1,1)"><path fill="#FFFFFF" stroke="none" d="M 220.41903551203197 292.3253497152483 L 212 272 L 203.58096448796803 292.3253497152483"/></g><g transform="translate(-14,-157) scale(1,1)"><path fill="none" stroke="#000000" d="M 220.41903551203197 292.3253497152483 L 212 272 L 203.58096448796803 292.3253497152483 L 220.41903551203197 292.3253497152483" stroke-miterlimit="10"/></g><g transform="translate(-14,-157) scale(1,1)"><path fill="none" stroke="#000000" d="M 299 320 L 299 310 L 212 310 L 212 272" stroke-miterlimit="10"/></g><g transform="translate(-14,-157) scale(1,1)"><path fill="#FFFFFF" stroke="none" d="M 220.41903551203197 292.3253497152483 L 212 272 L 203.58096448796803 292.3253497152483"/></g><g transform="translate(-14,-157) scale(1,1)"><path fill="none" stroke="#000000" d="M 220.41903551203197 292.3253497152483 L 212 272 L 203.58096448796803 292.3253497152483 L 220.41903551203197 292.3253497152483" stroke-miterlimit="10"/></g><g transform="translate(-14,-157) scale(1,1)"><path fill="none" stroke="#000000" d="M 105 408 L 105 394 L 143 394 L 143 352" stroke-miterlimit="10"/></g><g transform="translate(-14,-157) scale(1,1)"><path fill="#FFFFFF" stroke="none" d="M 151.41903551203197 372.3253497152483 L 143 352 L 134.58096448796803 372.3253497152483"/></g><g transform="translate(-14,-157) scale(1,1)"><path fill="none" stroke="#000000" d="M 151.41903551203197 372.3253497152483 L 143 352 L 134.58096448796803 372.3253497152483 L 151.41903551203197 372.3253497152483" stroke-miterlimit="10"/></g><g transform="translate(-14,-157) scale(1,1)"><path fill="none" stroke="#000000" d="M 177 408 L 177 394 L 143 394 L 143 352" stroke-miterlimit="10"/></g><g transform="translate(-14,-157) scale(1,1)"><path fill="#FFFFFF" stroke="none" d="M 151.41903551203197 372.3253497152483 L 143 352 L 134.58096448796803 372.3253497152483"/></g><g transform="translate(-14,-157) scale(1,1)"><path fill="none" stroke="#000000" d="M 151.41903551203197 372.3253497152483 L 143 352 L 134.58096448796803 372.3253497152483 L 151.41903551203197 372.3253497152483" stroke-miterlimit="10"/></g><g transform="translate(-14,-157) scale(1,1)"><path fill="none" stroke="#000000" d="M 257 408 L 257 394 L 300 394 L 300 352" stroke-miterlimit="10"/></g><g transform="translate(-14,-157) scale(1,1)"><path fill="#FFFFFF" stroke="none" d="M 308.419035512032 372.3253497152483 L 300 352 L 291.580964487968 372.3253497152483"/></g><g transform="translate(-14,-157) scale(1,1)"><path fill="none" stroke="#000000" d="M 308.419035512032 372.3253497152483 L 300 352 L 291.580964487968 372.3253497152483 L 308.419035512032 372.3253497152483" stroke-miterlimit="10"/></g><g transform="translate(-14,-157) scale(1,1)"><path fill="none" stroke="#000000" d="M 353 408 L 353 394 L 300 394 L 300 352" stroke-miterlimit="10"/></g><g transform="translate(-14,-157) scale(1,1)"><path fill="#FFFFFF" stroke="none" d="M 308.419035512032 372.3253497152483 L 300 352 L 291.580964487968 372.3253497152483"/></g><g transform="translate(-14,-157) scale(1,1)"><path fill="none" stroke="#000000" d="M 308.419035512032 372.3253497152483 L 300 352 L 291.580964487968 372.3253497152483 L 308.419035512032 372.3253497152483" stroke-miterlimit="10"/></g><g transform="translate(-14,-157) scale(1,1)"><path fill="none" stroke="#000000" d="M 241 264 L 368 264 L 368 408" stroke-miterlimit="10"/></g><g transform="translate(-14,-157) scale(1,1)"><path fill="#FFFFFF" stroke="none" d="M 363.790482243984 397.83732514237585 L 368 408 L 372.209517756016 397.83732514237585 L 368 386"/></g><g transform="translate(-14,-157) scale(1,1)"><path fill="none" stroke="#000000" d="M 363.790482243984 397.83732514237585 L 368 408 L 372.209517756016 397.83732514237585 L 368 386 L 363.790482243984 397.83732514237585" stroke-miterlimit="10"/></g><g transform="translate(-14,-157) scale(1,1)"><g><path fill="none" stroke="none"/><text fill="#000000" stroke="none" font-family="Arial" font-size="13px" font-style="normal" font-weight="normal" text-decoration="none" x="246.726806640625" y="260.5">*</text></g></g><g transform="translate(-14,-157) scale(1,1)"><g><path fill="none" stroke="none"/><text fill="#000000" stroke="none" font-family="Arial" font-size="13px" font-style="normal" font-weight="normal" text-decoration="none" x="375.5" y="404.5">1</text></g></g><g transform="translate(-14,-157) scale(1,1)"><path fill="none" stroke="#000000" d="M 212 240 L 212 200" stroke-miterlimit="10"/></g><g transform="translate(-14,-157) scale(1,1)"><path fill="#FFFFFF" stroke="none" d="M 216.209517756016 210.16267485762415 L 212 200 L 207.790482243984 210.16267485762415 L 212 222"/></g><g transform="translate(-14,-157) scale(1,1)"><path fill="none" stroke="#000000" d="M 216.209517756016 210.16267485762415 L 212 200 L 207.790482243984 210.16267485762415 L 212 222 L 216.209517756016 210.16267485762415" stroke-miterlimit="10"/></g><g transform="translate(-14,-157) scale(1,1)"><g><path fill="none" stroke="none"/><text fill="#000000" stroke="none" font-family="Arial" font-size="13px" font-style="normal" font-weight="normal" text-decoration="none" x="215.5" y="236.5">1..*</text></g></g><g transform="translate(-14,-157) scale(1,1)"><g><path fill="none" stroke="none"/><text fill="#000000" stroke="none" font-family="Arial" font-size="13px" font-style="normal" font-weight="normal" text-decoration="none" x="199.5" y="212.5">1</text></g></g><g transform="translate(-14,-157) scale(1,1)"><rect fill="#C0C0C0" stroke="none" x="44" y="247" width="66.80810546875" height="32" opacity="0.2"/></g><g transform="translate(-14,-157) scale(1,1)"><rect fill="#ffffff" stroke="none" x="37" y="240" width="66.80810546875" height="32"/></g><g transform="translate(-14,-157) scale(1,1)"><path fill="none" stroke="#000000" d="M 37 240 L 103.80810546875 240 L 103.80810546875 272 L 37 272 L 37 240 Z Z" stroke-miterlimit="10"/></g><g transform="translate(-14,-157) scale(1,1)"><g><path fill="none" stroke="none"/><text fill="#000000" stroke="none" font-family="Arial" font-size="13px" font-style="normal" font-weight="bold" text-decoration="none" x="42.9599609375" y="259.5">Grammar</text></g></g><g transform="translate(-14,-157) scale(1,1)"><path fill="none" stroke="#000000" d="M 70 200 L 70 240" stroke-miterlimit="10"/></g><g transform="translate(-14,-157) scale(1,1)"><path fill="#000000" stroke="none" d="M 65.79048224398402 229.83732514237585 L 70 240 L 74.20951775601598 229.83732514237585 L 70 218"/></g><g transform="translate(-14,-157) scale(1,1)"><path fill="none" stroke="#000000" d="M 65.79048224398402 229.83732514237585 L 70 240 L 74.20951775601598 229.83732514237585 L 70 218 L 65.79048224398402 229.83732514237585" stroke-miterlimit="10"/></g><g transform="translate(-14,-157) scale(1,1)"><g><path fill="none" stroke="none"/><text fill="#000000" stroke="none" font-family="Arial" font-size="13px" font-style="normal" font-weight="normal" text-decoration="none" x="38.5" y="219.5">1..*</text></g></g><g transform="translate(-14,-157) scale(1,1)"><g><path fill="none" stroke="none"/><text fill="#000000" stroke="none" font-family="Arial" font-size="13px" font-style="normal" font-weight="normal" text-decoration="none" x="79.5" y="236.5">1</text></g></g><g transform="translate(-14,-157) scale(1,1)"><path fill="none" stroke="#000000" d="M 187 184 L 102 184" stroke-miterlimit="10"/></g><g transform="translate(-14,-157) scale(1,1)"><path fill="#000000" stroke="none" d="M 112.16267485762415 179.790482243984 L 102 184 L 112.16267485762415 188.209517756016 L 124 184"/></g><g transform="translate(-14,-157) scale(1,1)"><path fill="none" stroke="#000000" d="M 112.16267485762415 179.790482243984 L 102 184 L 112.16267485762415 188.209517756016 L 124 184 L 112.16267485762415 179.790482243984" stroke-miterlimit="10"/></g><g transform="translate(-14,-157) scale(1,1)"><g><path fill="none" stroke="none"/><text fill="#000000" stroke="none" font-family="Arial" font-size="13px" font-style="normal" font-weight="normal" text-decoration="none" x="159.5" y="179.5">1..*</text></g></g><g transform="translate(-14,-157) scale(1,1)"><g><path fill="none" stroke="none"/><text fill="#000000" stroke="none" font-family="Arial" font-size="13px" font-style="normal" font-weight="normal" text-decoration="none" x="111.5" y="202.5">1</text></g></g><g transform="translate(-14,-157) scale(1,1)"><path fill="none" stroke="#000000" d="M 105 256 L 184 256" stroke-miterlimit="10"/></g><g transform="translate(-14,-157) scale(1,1)"><path fill="none" stroke="#000000" d="M 173.83732514237585 260.209517756016 L 184 256 L 173.83732514237585 251.790482243984" stroke-miterlimit="10"/></g><g transform="translate(-14,-157) scale(1,1)"><g><path fill="none" stroke="none"/><text fill="#000000" stroke="none" font-family="Arial" font-size="13px" font-style="normal" font-weight="normal" text-decoration="none" x="111.5" y="273.5">1</text></g></g><g transform="translate(-14,-157) scale(1,1)"><g><path fill="none" stroke="none"/><text fill="#000000" stroke="none" font-family="Arial" font-size="13px" font-style="normal" font-weight="normal" text-decoration="none" x="144.13134765625" y="246.5">-start</text></g></g><g transform="translate(-14,-157) scale(1,1)"><g><path fill="none" stroke="none"/><text fill="#000000" stroke="none" font-family="Arial" font-size="13px" font-style="normal" font-weight="normal" text-decoration="none" x="167.5" y="274.5">1</text></g></g></g></svg>