<svg version="1.1" xmlns="http://www.w3.org/2000/svg" xmlns:xlink="http://www.w3.org/1999/xlink" width="390.919921875" height="64"><defs/><g><g transform="translate(-30,-150) scale(1,1)"><rect fill="#C0C0C0" stroke="none" x="47" y="167" width="63.18994140625" height="44" opacity="0.2"/></g><g transform="translate(-30,-150) scale(1,1)"><rect fill="#ffffff" stroke="none" x="40" y="160" width="63.18994140625" height="44"/></g><g transform="translate(-30,-150) scale(1,1)"><path fill="none" stroke="#000000" d="M 40 160 L 103.18994140625 160 L 103.18994140625 204 L 40 204 L 40 160 Z Z" stroke-miterlimit="10"/></g><g transform="translate(-30,-150) scale(1,1)"><path fill="none" stroke="#000000" d="M 40 185 L 103.18994140625 185" stroke-miterlimit="10"/></g><g transform="translate(-30,-150) scale(1,1)"><path fill="none" stroke="#000000" d="M 40 195 L 103.18994140625 195" stroke-miterlimit="10"/></g><g transform="translate(-30,-150) scale(1,1)"><g><path fill="none" stroke="none"/><text fill="#000000" stroke="none" font-family="Arial" font-size="13px" font-style="normal" font-weight="bold" text-decoration="none" x="46.667724609375" y="179.5">Interests</text></g></g><g transform="translate(-30,-150) scale(1,1)"><rect fill="#C0C0C0" stroke="none" x="199" y="167" width="65.34814453125" height="44" opacity="0.2"/></g><g transform="translate(-30,-150) scale(1,1)"><rect fill="#ffffff" stroke="none" x="192" y="160" width="65.34814453125" height="44"/></g><g transform="translate(-30,-150) scale(1,1)"><path fill="none" stroke="#000000" d="M 192 160 L 257.34814453125 160 L 257.34814453125 204 L 192 204 L 192 160 Z Z" stroke-miterlimit="10"/></g><g transform="translate(-30,-150) scale(1,1)"><path fill="none" stroke="#000000" d="M 192 185 L 257.34814453125 185" stroke-miterlimit="10"/></g><g transform="translate(-30,-150) scale(1,1)"><path fill="none" stroke="#000000" d="M 192 195 L 257.34814453125 195" stroke-miterlimit="10"/></g><g transform="translate(-30,-150) scale(1,1)"><g><path fill="none" stroke="none"/><text fill="#000000" stroke="none" font-family="Arial" font-size="13px" font-style="normal" font-weight="bold" text-decoration="none" x="198.299560546875" y="179.5">Category</text></g></g><g transform="translate(-30,-150) scale(1,1)"><rect fill="#C0C0C0" stroke="none" x="367" y="167" width="50.919921875" height="44" opacity="0.2"/></g><g transform="translate(-30,-150) scale(1,1)"><rect fill="#ffffff" stroke="none" x="360" y="160" width="50.919921875" height="44"/></g><g transform="translate(-30,-150) scale(1,1)"><path fill="none" stroke="#000000" d="M 360 160 L 410.919921875 160 L 410.919921875 204 L 360 204 L 360 160 Z Z" stroke-miterlimit="10"/></g><g transform="translate(-30,-150) scale(1,1)"><path fill="none" stroke="#000000" d="M 360 185 L 410.919921875 185" stroke-miterlimit="10"/></g><g transform="translate(-30,-150) scale(1,1)"><path fill="none" stroke="#000000" d="M 360 195 L 410.919921875 195" stroke-miterlimit="10"/></g><g transform="translate(-30,-150) scale(1,1)"><g><path fill="none" stroke="none"/><text fill="#000000" stroke="none" font-family="Arial" font-size="13px" font-style="normal" font-weight="bold" text-decoration="none" x="368.47998046875" y="179.5">String</text></g></g><g transform="translate(-30,-150) scale(1,1)"><path fill="none" stroke="#000000" d="M 359 182 L 258 182" stroke-miterlimit="10"/></g><g transform="translate(-30,-150) scale(1,1)"><path fill="#000000" stroke="none" d="M 268.16267485762415 177.790482243984 L 258 182 L 268.16267485762415 186.209517756016 L 280 182"/></g><g transform="translate(-30,-150) scale(1,1)"><path fill="none" stroke="#000000" d="M 268.16267485762415 177.790482243984 L 258 182 L 268.16267485762415 186.209517756016 L 280 182 L 268.16267485762415 177.790482243984" stroke-miterlimit="10"/></g><g transform="translate(-30,-150) scale(1,1)"><g><path fill="none" stroke="none"/><text fill="#000000" stroke="none" font-family="Arial" font-size="13px" font-style="normal" font-weight="normal" text-decoration="none" x="278.5" y="202.5">+productions</text></g></g><g transform="translate(-30,-150) scale(1,1)"><g><path fill="none" stroke="none"/><text fill="#000000" stroke="none" font-family="Arial" font-size="13px" font-style="normal" font-weight="normal" text-decoration="none" x="327.5" y="175.5">1..*</text></g></g><g transform="translate(-30,-150) scale(1,1)"><path fill="none" stroke="#000000" d="M 191 182 L 104 182" stroke-miterlimit="10"/></g><g transform="translate(-30,-150) scale(1,1)"><path fill="#000000" stroke="none" d="M 114.16267485762415 177.790482243984 L 104 182 L 114.16267485762415 186.209517756016 L 126 182"/></g><g transform="translate(-30,-150) scale(1,1)"><path fill="none" stroke="#000000" d="M 114.16267485762415 177.790482243984 L 104 182 L 114.16267485762415 186.209517756016 L 126 182 L 114.16267485762415 177.790482243984" stroke-miterlimit="10"/></g><g transform="translate(-30,-150) scale(1,1)"><g><path fill="none" stroke="none"/><text fill="#000000" stroke="none" font-family="Arial" font-size="13px" font-style="normal" font-weight="normal" text-decoration="none" x="159.5" y="175.5">1..*</text></g></g></g></svg>